<svg version="1.1" xmlns="http://www.w3.org/2000/svg" viewBox="0 0 524.7287723452638 234.80252128070595" width="1049.4575446905276" height="469.6050425614119">
  <!-- svg-source:excalidraw -->
  
  <defs>
    <style class="style-fonts">
      @font-face {
        font-family: "Virgil";
        src: url("https://excalidraw.com/Virgil.woff2");
      }
      @font-face {
        font-family: "Cascadia";
        src: url("https://excalidraw.com/Cascadia.woff2");
      }
    </style>
    
  </defs>
  <rect x="0" y="0" width="524.7287723452638" height="234.80252128070595" fill="#ffffff"></rect><g stroke-linecap="round" transform="translate(236.79796281706354 11.493050748405835) rotate(0 32.540420532226506 32.540420532226506)"><path d="M0 0 C0 0, 0 0, 0 0 M0 0 C0 0, 0 0, 0 0 M0.13 12.04 C3.31 8.38, 6.5 4.72, 10.63 -0.03 M0.13 12.04 C3.36 8.32, 6.59 4.61, 10.63 -0.03 M0.27 24.08 C8.36 14.77, 16.46 5.46, 21.26 -0.07 M0.27 24.08 C8.46 14.66, 16.65 5.24, 21.26 -0.07 M-0.26 36.88 C9.36 25.81, 18.98 14.74, 31.89 -0.1 M-0.26 36.88 C7.83 27.58, 15.91 18.28, 31.89 -0.1 M-0.12 48.92 C12.53 34.37, 25.18 19.82, 42.52 -0.14 M-0.12 48.92 C12.08 34.88, 24.29 20.84, 42.52 -0.14 M0.01 60.96 C19.65 38.36, 39.3 15.76, 53.15 -0.17 M0.01 60.96 C18.34 39.87, 36.67 18.78, 53.15 -0.17 M6.7 65.45 C25.77 43.52, 44.83 21.59, 63.78 -0.21 M6.7 65.45 C23.81 45.77, 40.93 26.08, 63.78 -0.21 M17.33 65.42 C27.69 53.5, 38.05 41.58, 65.88 9.57 M17.33 65.42 C32.38 48.11, 47.43 30.79, 65.88 9.57 M27.96 65.38 C40.3 51.2, 52.63 37.01, 66.02 21.61 M27.96 65.38 C42.71 48.41, 57.47 31.45, 66.02 21.61 M38.59 65.35 C45.57 57.33, 52.54 49.31, 65.49 34.41 M38.59 65.35 C45.68 57.2, 52.76 49.05, 65.49 34.41 M49.22 65.31 C55.34 58.28, 61.46 51.24, 65.63 46.45 M49.22 65.31 C54.99 58.68, 60.77 52.04, 65.63 46.45 M59.85 65.28 C62.01 62.8, 64.17 60.31, 65.76 58.49 M59.85 65.28 C61.14 63.8, 62.42 62.33, 65.76 58.49 M0.23 65.28 C0.23 65.28, 0.23 65.28, 0.23 65.28 M0.23 65.28 C0.23 65.28, 0.23 65.28, 0.23 65.28 M12.27 65.15 C8.4 61.78, 4.52 58.41, 0.19 54.65 M12.27 65.15 C7.69 61.16, 3.1 57.18, 0.19 54.65 M24.31 65.01 C17.77 59.33, 11.23 53.65, 0.16 44.02 M24.31 65.01 C16 57.79, 7.69 50.56, 0.16 44.02 M36.35 64.88 C23.94 54.09, 11.53 43.3, 0.13 33.39 M36.35 64.88 C27.19 56.92, 18.03 48.95, 0.13 33.39 M49.15 65.4 C37.86 55.59, 26.58 45.78, 0.09 22.76 M49.15 65.4 C34.28 52.48, 19.42 39.56, 0.09 22.76 M61.19 65.27 C38.05 45.16, 14.91 25.05, 0.06 12.13 M61.19 65.27 C40.69 47.45, 20.19 29.63, 0.06 12.13 M64.93 57.92 C47.43 42.71, 29.93 27.5, 0.02 1.5 M64.93 57.92 C38.99 35.37, 13.05 12.82, 0.02 1.5 M65.65 47.95 C54.16 37.96, 42.67 27.97, 9.8 -0.6 M65.65 47.95 C53.33 37.24, 41.02 26.54, 9.8 -0.6 M65.61 37.32 C48.36 22.32, 31.12 7.33, 21.84 -0.74 M65.61 37.32 C49.74 23.52, 33.86 9.72, 21.84 -0.74 M65.58 26.69 C55.08 17.56, 44.58 8.43, 33.88 -0.87 M65.58 26.69 C56.16 18.5, 46.75 10.32, 33.88 -0.87 M65.54 16.06 C60.12 11.34, 54.69 6.62, 46.68 -0.35 M65.54 16.06 C58.64 10.05, 51.73 4.05, 46.68 -0.35 M65.51 5.43 C63.53 3.7, 61.55 1.98, 58.72 -0.48 M65.51 5.43 C63.82 3.95, 62.12 2.48, 58.72 -0.48" stroke="#7eddd2" stroke-width="1" fill="none"></path><path d="M0 0 C15.71 0, 31.41 0, 65.08 0 M0 0 C14.25 0, 28.5 0, 65.08 0 M65.08 0 C65.08 25.09, 65.08 50.18, 65.08 65.08 M65.08 0 C65.08 23.44, 65.08 46.88, 65.08 65.08 M65.08 65.08 C49.78 65.08, 34.47 65.08, 0 65.08 M65.08 65.08 C42.3 65.08, 19.53 65.08, 0 65.08 M0 65.08 C0 44.79, 0 24.5, 0 0 M0 65.08 C0 46.36, 0 27.64, 0 0" stroke="#000000" stroke-width="2" fill="none"></path></g><g stroke-linecap="round"><g transform="translate(254.59410060500727 28.977140224300342) rotate(0 14.666270666270918 15.056331056331288)"><path d="M0 0 C2.96 -1.86, 5.92 -3.71, 9.21 -5.77 M0 0 C2.96 -1.86, 5.93 -3.72, 9.21 -5.77 M9.21 -5.77 C10.59 -4.9, 11.98 -4.03, 14.67 -2.34 M9.21 -5.77 C10.78 -4.78, 12.36 -3.79, 14.67 -2.34 M14.67 -2.34 C16.02 -3.09, 17.37 -3.84, 20.28 -5.46 M14.67 -2.34 C16.74 -3.49, 18.8 -4.64, 20.28 -5.46 M20.28 -5.46 C22.86 -3.7, 25.43 -1.95, 29.64 0.94 M20.28 -5.46 C22.45 -3.98, 24.61 -2.5, 29.64 0.94 M29.64 0.94 C29.64 2.35, 29.64 3.77, 29.64 7.8 M29.64 0.94 C29.64 3.58, 29.64 6.22, 29.64 7.8 M29.64 7.8 C30.79 8.48, 31.93 9.16, 34.64 10.77 M29.64 7.8 C31.34 8.81, 33.04 9.82, 34.64 10.77 M34.64 10.77 C34.68 13.29, 34.72 15.81, 34.79 20.44 M34.64 10.77 C34.68 13.43, 34.72 16.09, 34.79 20.44 M34.79 20.44 C33.7 20.99, 32.61 21.53, 30.11 22.78 M34.79 20.44 C33.84 20.92, 32.88 21.39, 30.11 22.78 M30.11 22.78 C30.11 24.7, 30.11 26.63, 30.11 29.8 M30.11 22.78 C30.11 24.46, 30.11 26.14, 30.11 29.8 M30.11 29.8 C26.18 32.16, 22.24 34.52, 19.97 35.89 M30.11 29.8 C26.47 31.99, 22.83 34.17, 19.97 35.89 M19.97 35.89 C18.66 35.08, 17.35 34.27, 14.67 32.61 M19.97 35.89 C18.52 34.99, 17.08 34.1, 14.67 32.61 M14.67 32.61 C13.15 33.49, 11.63 34.38, 9.05 35.89 M14.67 32.61 C12.5 33.87, 10.34 35.13, 9.05 35.89 M9.05 35.89 C7.01 34.57, 4.98 33.26, -0.62 29.64 M9.05 35.89 C6.48 34.23, 3.92 32.58, -0.62 29.64 M-0.62 29.64 C-0.62 28.12, -0.62 26.6, -0.62 23.25 M-0.62 29.64 C-0.62 28.32, -0.62 26.99, -0.62 23.25 M-0.62 23.25 C-2.19 22.29, -3.76 21.33, -5.46 20.28 M-0.62 23.25 C-2.09 22.35, -3.55 21.45, -5.46 20.28 M-5.46 20.28 C-5.46 17.11, -5.46 13.94, -5.46 10.61 M-5.46 20.28 C-5.46 16.44, -5.46 12.59, -5.46 10.61 M-5.46 10.61 C-3.46 9.25, -1.45 7.9, -0.16 7.02 M-5.46 10.61 C-3.52 9.3, -1.58 7.98, -0.16 7.02 M-0.16 7.02 C-0.1 4.51, -0.04 2, 0 0 M-0.16 7.02 C-0.11 5.12, -0.07 3.22, 0 0" stroke="#232f3e" stroke-width="2" fill="none"></path></g></g><mask></mask><g stroke-linecap="round"><g transform="translate(269.2603712712769 26.636777883939317) rotate(0 2.5743985743986286 6.631026631026742)"><path d="M0 0 C0 2.92, 0 5.85, 0 9.99 M0 0 C0 3.84, 0 7.68, 0 9.99 M0 9.99 C2.04 11.28, 4.07 12.58, 5.15 13.26 M0 9.99 C1.74 11.09, 3.47 12.2, 5.15 13.26" stroke="#232f3e" stroke-width="2" fill="none"></path></g></g><mask></mask><g stroke-linecap="round"><g transform="translate(254.43807644898516 36.15425140141258) rotate(0 4.836748836748939 -1.0921690921691436)"><path d="M0 0 C1.22 0.85, 2.44 1.71, 4.68 3.28 M0 0 C1.8 1.26, 3.6 2.52, 4.68 3.28 M4.68 3.28 C6.23 2.21, 7.77 1.15, 9.67 -0.16 M4.68 3.28 C5.73 2.56, 6.77 1.84, 9.67 -0.16 M9.67 -0.16 C9.67 -1.38, 9.67 -2.61, 9.67 -5.46 M9.67 -0.16 C9.67 -1.83, 9.67 -3.5, 9.67 -5.46" stroke="#232f3e" stroke-width="2" fill="none"></path></g></g><mask></mask><g stroke-linecap="round"><g transform="translate(259.74289775380475 26.3091271562879) rotate(0 0 3.3545193545193968)"><path d="M0 0 C0 1.41, 0 2.82, 0 6.71 M0 0 C0 1.47, 0 2.94, 0 6.71" stroke="#232f3e" stroke-width="2" fill="none"></path></g></g><mask></mask><g stroke-linecap="round"><g transform="translate(259.11880112970766 39.11871036587024) rotate(0 -2.1843381843381735 3.8225918225918747)"><path d="M0 0 C-0.05 1.65, -0.11 3.3, -0.16 4.84 M0 0 C-0.05 1.5, -0.1 3.01, -0.16 4.84 M-0.16 4.84 C-1.38 5.65, -2.6 6.47, -4.37 7.65 M-0.16 4.84 C-1.71 5.87, -3.27 6.91, -4.37 7.65" stroke="#232f3e" stroke-width="2" fill="none"></path></g></g><mask></mask><g stroke-linecap="round"><g transform="translate(258.9627769736819 43.4873867345467) rotate(0 2.1063261063261507 5.694881694881786)"><path d="M0 0 C1.27 1.03, 2.55 2.06, 4.06 3.28 M0 0 C1.31 1.06, 2.61 2.11, 4.06 3.28 M4.06 3.28 C4.09 4.38, 4.13 5.49, 4.21 8.27 M4.06 3.28 C4.09 4.39, 4.13 5.5, 4.21 8.27 M4.21 8.27 C2.63 9.49, 1.05 10.7, 0.16 11.39 M4.21 8.27 C2.78 9.37, 1.35 10.47, 0.16 11.39" stroke="#232f3e" stroke-width="2" fill="none"></path></g></g><mask></mask><g stroke-linecap="round"><g transform="translate(269.2603712712796 61.89823714539841) rotate(0 -1.9503019503020482 -10.375606375606537)"><path d="M0 0 C0.06 -6.92, 0.12 -13.83, 0.16 -17.94 M0 0 C0.06 -6.46, 0.11 -12.92, 0.16 -17.94 M0.16 -17.94 C-0.83 -18.6, -1.83 -19.26, -4.06 -20.75 M0.16 -17.94 C-1.32 -18.93, -2.79 -19.91, -4.06 -20.75" stroke="#232f3e" stroke-width="2" fill="none"></path></g></g><mask></mask><g stroke-linecap="round"><g transform="translate(263.17542918633785 51.75666700382851) rotate(0 3.0424710424711066 -2.2623502623502816)"><path d="M0 0 C1.54 -1.15, 3.09 -2.3, 6.08 -4.52 M0 0 C1.76 -1.31, 3.51 -2.61, 6.08 -4.52" stroke="#232f3e" stroke-width="2" fill="none"></path></g></g><mask></mask><g stroke-linecap="round"><g transform="translate(289.5435115544183 49.26028050744196) rotate(0 -2.6524106524107083 -1.4042174042174054)"><path d="M0 0 C-2.1 -1.11, -4.2 -2.22, -5.3 -2.81 M0 0 C-1.79 -0.95, -3.58 -1.89, -5.3 -2.81" stroke="#232f3e" stroke-width="2" fill="none"></path></g></g><mask></mask><g stroke-linecap="round"><g transform="translate(269.4163954273033 55.797692644853555) rotate(0 2.1843381843382303 0)"><path d="M0 0 C1.35 0, 2.7 0, 4.37 0 M0 0 C0.91 0, 1.83 0, 4.37 0" stroke="#232f3e" stroke-width="2" fill="none"></path></g></g><mask></mask><g stroke-linecap="round"><g transform="translate(260.05494606585216 62.52233376949505) rotate(0 2.340362340362333 -1.794277794277832)"><path d="M0 0 C1.19 -0.91, 2.38 -1.82, 4.68 -3.59 M0 0 C1.37 -1.05, 2.74 -2.1, 4.68 -3.59" stroke="#232f3e" stroke-width="2" fill="none"></path></g></g><mask></mask><g stroke-linecap="round"><g transform="translate(253.65795566886277 51.75666700382851) rotate(0 1.7162657162657524 -1.0141570141570355)"><path d="M0 0 C1 -0.59, 1.99 -1.18, 3.43 -2.03 M0 0 C1.27 -0.75, 2.54 -1.5, 3.43 -2.03" stroke="#232f3e" stroke-width="2" fill="none"></path></g></g><mask></mask><g stroke-linecap="round"><g transform="translate(249.75735176825833 43.4873867345467) rotate(0 1.7162657162657524 -0.9361449361449559)"><path d="M0 0 C0.76 -0.42, 1.52 -0.83, 3.43 -1.87 M0 0 C0.77 -0.42, 1.53 -0.84, 3.43 -1.87" stroke="#232f3e" stroke-width="2" fill="none"></path></g></g><mask></mask><g stroke-linecap="round" transform="translate(277.84169985260905 31.161478408639482) rotate(0 1.6382536382536728 1.6382536382536443)"><path d="M3.28 1.64 C3.28 1.73, 3.27 1.83, 3.25 1.92 C3.24 2.02, 3.21 2.11, 3.18 2.2 C3.15 2.29, 3.1 2.38, 3.06 2.46 C3.01 2.54, 2.95 2.62, 2.89 2.69 C2.83 2.76, 2.76 2.83, 2.69 2.89 C2.62 2.95, 2.54 3.01, 2.46 3.06 C2.38 3.1, 2.29 3.15, 2.2 3.18 C2.11 3.21, 2.02 3.24, 1.92 3.25 C1.83 3.27, 1.73 3.28, 1.64 3.28 C1.54 3.28, 1.45 3.27, 1.35 3.25 C1.26 3.24, 1.17 3.21, 1.08 3.18 C0.99 3.15, 0.9 3.1, 0.82 3.06 C0.74 3.01, 0.66 2.95, 0.59 2.89 C0.51 2.83, 0.44 2.76, 0.38 2.69 C0.32 2.62, 0.27 2.54, 0.22 2.46 C0.17 2.38, 0.13 2.29, 0.1 2.2 C0.07 2.11, 0.04 2.02, 0.02 1.92 C0.01 1.83, 0 1.73, 0 1.64 C0 1.54, 0.01 1.45, 0.02 1.35 C0.04 1.26, 0.07 1.17, 0.1 1.08 C0.13 0.99, 0.17 0.9, 0.22 0.82 C0.27 0.74, 0.32 0.66, 0.38 0.59 C0.44 0.51, 0.51 0.44, 0.59 0.38 C0.66 0.32, 0.74 0.27, 0.82 0.22 C0.9 0.17, 0.99 0.13, 1.08 0.1 C1.17 0.07, 1.26 0.04, 1.35 0.02 C1.45 0.01, 1.54 0, 1.64 0 C1.73 0, 1.83 0.01, 1.92 0.02 C2.02 0.04, 2.11 0.07, 2.2 0.1 C2.29 0.13, 2.38 0.17, 2.46 0.22 C2.54 0.27, 2.62 0.32, 2.69 0.38 C2.76 0.44, 2.83 0.51, 2.89 0.59 C2.95 0.66, 3.01 0.74, 3.06 0.82 C3.1 0.9, 3.15 0.99, 3.18 1.08 C3.21 1.17, 3.24 1.26, 3.25 1.35 C3.27 1.45, 3.27 1.59, 3.28 1.64 C3.28 1.69, 3.28 1.59, 3.28 1.64" stroke="#232f3e" stroke-width="2" fill="none"></path></g><g stroke-linecap="round" transform="translate(274.6432046541124 38.884674131835595) rotate(0 1.6382536382536728 1.6382536382536443)"><path d="M3.28 1.64 C3.28 1.73, 3.27 1.83, 3.25 1.92 C3.24 2.02, 3.21 2.11, 3.18 2.2 C3.15 2.29, 3.1 2.38, 3.06 2.46 C3.01 2.54, 2.95 2.62, 2.89 2.69 C2.83 2.76, 2.76 2.83, 2.69 2.89 C2.62 2.95, 2.54 3.01, 2.46 3.06 C2.38 3.1, 2.29 3.15, 2.2 3.18 C2.11 3.21, 2.02 3.24, 1.92 3.25 C1.83 3.27, 1.73 3.28, 1.64 3.28 C1.54 3.28, 1.45 3.27, 1.35 3.25 C1.26 3.24, 1.17 3.21, 1.08 3.18 C0.99 3.15, 0.9 3.1, 0.82 3.06 C0.74 3.01, 0.66 2.95, 0.59 2.89 C0.51 2.83, 0.44 2.76, 0.38 2.69 C0.32 2.62, 0.27 2.54, 0.22 2.46 C0.17 2.38, 0.13 2.29, 0.1 2.2 C0.07 2.11, 0.04 2.02, 0.02 1.92 C0.01 1.83, 0 1.73, 0 1.64 C0 1.54, 0.01 1.45, 0.02 1.35 C0.04 1.26, 0.07 1.17, 0.1 1.08 C0.13 0.99, 0.17 0.9, 0.22 0.82 C0.27 0.74, 0.32 0.66, 0.38 0.59 C0.44 0.51, 0.51 0.44, 0.59 0.38 C0.66 0.32, 0.74 0.27, 0.82 0.22 C0.9 0.17, 0.99 0.13, 1.08 0.1 C1.17 0.07, 1.26 0.04, 1.35 0.02 C1.45 0.01, 1.54 0, 1.64 0 C1.73 0, 1.83 0.01, 1.92 0.02 C2.02 0.04, 2.11 0.07, 2.2 0.1 C2.29 0.13, 2.38 0.17, 2.46 0.22 C2.54 0.27, 2.62 0.32, 2.69 0.38 C2.76 0.44, 2.83 0.51, 2.89 0.59 C2.95 0.66, 3.01 0.74, 3.06 0.82 C3.1 0.9, 3.15 0.99, 3.18 1.08 C3.21 1.17, 3.24 1.26, 3.25 1.35 C3.27 1.45, 3.27 1.59, 3.28 1.64 C3.28 1.69, 3.28 1.59, 3.28 1.64" stroke="#232f3e" stroke-width="2" fill="none"></path></g><g stroke-linecap="round" transform="translate(280.88417089507743 43.565398812559465) rotate(0 1.6382536382536728 1.6382536382536443)"><path d="M3.28 1.64 C3.28 1.73, 3.27 1.83, 3.25 1.92 C3.24 2.02, 3.21 2.11, 3.18 2.2 C3.15 2.29, 3.1 2.38, 3.06 2.46 C3.01 2.54, 2.95 2.62, 2.89 2.69 C2.83 2.76, 2.76 2.83, 2.69 2.89 C2.62 2.95, 2.54 3.01, 2.46 3.06 C2.38 3.1, 2.29 3.15, 2.2 3.18 C2.11 3.21, 2.02 3.24, 1.92 3.25 C1.83 3.27, 1.73 3.28, 1.64 3.28 C1.54 3.28, 1.45 3.27, 1.35 3.25 C1.26 3.24, 1.17 3.21, 1.08 3.18 C0.99 3.15, 0.9 3.1, 0.82 3.06 C0.74 3.01, 0.66 2.95, 0.59 2.89 C0.51 2.83, 0.44 2.76, 0.38 2.69 C0.32 2.62, 0.27 2.54, 0.22 2.46 C0.17 2.38, 0.13 2.29, 0.1 2.2 C0.07 2.11, 0.04 2.02, 0.02 1.92 C0.01 1.83, 0 1.73, 0 1.64 C0 1.54, 0.01 1.45, 0.02 1.35 C0.04 1.26, 0.07 1.17, 0.1 1.08 C0.13 0.99, 0.17 0.9, 0.22 0.82 C0.27 0.74, 0.32 0.66, 0.38 0.59 C0.44 0.51, 0.51 0.44, 0.59 0.38 C0.66 0.32, 0.74 0.27, 0.82 0.22 C0.9 0.17, 0.99 0.13, 1.08 0.1 C1.17 0.07, 1.26 0.04, 1.35 0.02 C1.45 0.01, 1.54 0, 1.64 0 C1.73 0, 1.83 0.01, 1.92 0.02 C2.02 0.04, 2.11 0.07, 2.2 0.1 C2.29 0.13, 2.38 0.17, 2.46 0.22 C2.54 0.27, 2.62 0.32, 2.69 0.38 C2.76 0.44, 2.83 0.51, 2.89 0.59 C2.95 0.66, 3.01 0.74, 3.06 0.82 C3.1 0.9, 3.15 0.99, 3.18 1.08 C3.21 1.17, 3.24 1.26, 3.25 1.35 C3.27 1.45, 3.27 1.59, 3.28 1.64 C3.28 1.69, 3.28 1.59, 3.28 1.64" stroke="#232f3e" stroke-width="2" fill="none"></path></g><g stroke-linecap="round" transform="translate(274.1907346016403 53.86299311015489) rotate(0 1.6382536382536728 1.6382536382536443)"><path d="M3.28 1.64 C3.28 1.73, 3.27 1.83, 3.25 1.92 C3.24 2.02, 3.21 2.11, 3.18 2.2 C3.15 2.29, 3.1 2.38, 3.06 2.46 C3.01 2.54, 2.95 2.62, 2.89 2.69 C2.83 2.76, 2.76 2.83, 2.69 2.89 C2.62 2.95, 2.54 3.01, 2.46 3.06 C2.38 3.1, 2.29 3.15, 2.2 3.18 C2.11 3.21, 2.02 3.24, 1.92 3.25 C1.83 3.27, 1.73 3.28, 1.64 3.28 C1.54 3.28, 1.45 3.27, 1.35 3.25 C1.26 3.24, 1.17 3.21, 1.08 3.18 C0.99 3.15, 0.9 3.1, 0.82 3.06 C0.74 3.01, 0.66 2.95, 0.59 2.89 C0.51 2.83, 0.44 2.76, 0.38 2.69 C0.32 2.62, 0.27 2.54, 0.22 2.46 C0.17 2.38, 0.13 2.29, 0.1 2.2 C0.07 2.11, 0.04 2.02, 0.02 1.92 C0.01 1.83, 0 1.73, 0 1.64 C0 1.54, 0.01 1.45, 0.02 1.35 C0.04 1.26, 0.07 1.17, 0.1 1.08 C0.13 0.99, 0.17 0.9, 0.22 0.82 C0.27 0.74, 0.32 0.66, 0.38 0.59 C0.44 0.51, 0.51 0.44, 0.59 0.38 C0.66 0.32, 0.74 0.27, 0.82 0.22 C0.9 0.17, 0.99 0.13, 1.08 0.1 C1.17 0.07, 1.26 0.04, 1.35 0.02 C1.45 0.01, 1.54 0, 1.64 0 C1.73 0, 1.83 0.01, 1.92 0.02 C2.02 0.04, 2.11 0.07, 2.2 0.1 C2.29 0.13, 2.38 0.17, 2.46 0.22 C2.54 0.27, 2.62 0.32, 2.69 0.38 C2.76 0.44, 2.83 0.51, 2.89 0.59 C2.95 0.66, 3.01 0.74, 3.06 0.82 C3.1 0.9, 3.15 0.99, 3.18 1.08 C3.21 1.17, 3.24 1.26, 3.25 1.35 C3.27 1.45, 3.27 1.59, 3.28 1.64 C3.28 1.69, 3.28 1.59, 3.28 1.64" stroke="#232f3e" stroke-width="2" fill="none"></path></g><g stroke-linecap="round"><g transform="translate(281.2742312851392 32.56569581285828) rotate(0 1.4042174042174338 0)"><path d="M0 0 C0.9 0, 1.81 0, 2.81 0 M0 0 C1.05 0, 2.09 0, 2.81 0" stroke="#232f3e" stroke-width="2" fill="none"></path></g></g><mask></mask><g transform="translate(216.8383833492901 81.27340453779459) rotate(0 52.20000076293945 12)"><text x="0" y="0" font-family="Virgil, Segoe UI Emoji" font-size="20px" fill="#000000" text-anchor="start" style="white-space: pre;" direction="ltr" dominant-baseline="text-before-edge">SageMaker</text></g><g stroke-linecap="round" transform="translate(14.186091755753978 10.701812850708734) rotate(0 32.2305761824785 32.199712367130076)"><path d="M0 0 C0 0, 0 0, 0 0 M0 0 C0 0, 0 0, 0 0 M0.13 12.04 C3.63 8.02, 7.13 4, 10.63 -0.03 M0.13 12.04 C4.07 7.51, 8.01 2.97, 10.63 -0.03 M0.27 24.08 C8.42 14.71, 16.57 5.33, 21.26 -0.07 M0.27 24.08 C7.51 15.75, 14.75 7.41, 21.26 -0.07 M-0.26 36.88 C7.38 28.09, 15.02 19.3, 31.89 -0.1 M-0.26 36.88 C8.36 26.96, 16.98 17.05, 31.89 -0.1 M-0.12 48.92 C12.48 34.42, 25.08 19.92, 42.52 -0.14 M-0.12 48.92 C13.37 33.39, 26.86 17.87, 42.52 -0.14 M0.01 60.96 C11.29 47.98, 22.58 35, 53.15 -0.17 M0.01 60.96 C14.42 44.38, 28.83 27.8, 53.15 -0.17 M7.36 64.7 C21.98 47.88, 36.59 31.07, 63.78 -0.21 M7.36 64.7 C29.26 39.51, 51.16 14.31, 63.78 -0.21 M17.99 64.66 C27.85 53.32, 37.71 41.98, 64.57 11.08 M17.99 64.66 C34.92 45.19, 51.84 25.72, 64.57 11.08 M28.62 64.63 C40.73 50.7, 52.84 36.76, 64.7 23.12 M28.62 64.63 C43.02 48.07, 57.41 31.51, 64.7 23.12 M39.25 64.59 C46.16 56.65, 53.07 48.7, 64.84 35.16 M39.25 64.59 C48.68 53.75, 58.11 42.9, 64.84 35.16 M49.88 64.56 C53.08 60.88, 56.28 57.2, 64.97 47.2 M49.88 64.56 C54.15 59.65, 58.42 54.73, 64.97 47.2 M60.51 64.53 C61.3 63.61, 62.09 62.7, 64.45 60 M60.51 64.53 C61.52 63.37, 62.53 62.21, 64.45 60 M-0.19 64.24 C-0.19 64.24, -0.19 64.24, -0.19 64.24 M-0.19 64.24 C-0.19 64.24, -0.19 64.24, -0.19 64.24 M11.85 64.1 C8.24 60.97, 4.63 57.83, -0.22 53.61 M11.85 64.1 C8.95 61.58, 6.05 59.06, -0.22 53.61 M24.65 64.63 C18.21 59.03, 11.77 53.43, -0.26 42.98 M24.65 64.63 C17.58 58.48, 10.51 52.33, -0.26 42.98 M36.69 64.49 C27.95 56.89, 19.21 49.3, -0.29 32.35 M36.69 64.49 C26.28 55.44, 15.87 46.4, -0.29 32.35 M48.73 64.36 C36.45 53.69, 24.17 43.01, -0.33 21.72 M48.73 64.36 C36.69 53.89, 24.65 43.43, -0.33 21.72 M60.77 64.23 C38.35 44.74, 15.94 25.25, -0.36 11.09 M60.77 64.23 C37.27 43.79, 13.76 23.36, -0.36 11.09 M65.26 57.53 C46.76 41.45, 28.26 25.36, 0.36 1.11 M65.26 57.53 C41.27 36.67, 17.27 15.81, 0.36 1.11 M65.23 46.9 C53.14 36.39, 41.05 25.88, 10.89 -0.33 M65.23 46.9 C48.93 32.73, 32.63 18.56, 10.89 -0.33 M65.2 36.27 C52.61 25.33, 40.02 14.38, 22.93 -0.47 M65.2 36.27 C49.66 22.77, 34.13 9.27, 22.93 -0.47 M65.16 25.64 C58.63 19.97, 52.1 14.29, 34.97 -0.6 M65.16 25.64 C58.41 19.77, 51.65 13.9, 34.97 -0.6 M65.13 15.01 C60.73 11.19, 56.33 7.37, 47.77 -0.08 M65.13 15.01 C60.88 11.32, 56.63 7.63, 47.77 -0.08 M65.09 4.38 C63.3 2.82, 61.5 1.26, 59.81 -0.21 M65.09 4.38 C63.52 3.02, 61.95 1.65, 59.81 -0.21" stroke="#fd7e1488" stroke-width="1" fill="none"></path><path d="M0 0 C24.47 0, 48.95 0, 64.46 0 M0 0 C24.15 0, 48.31 0, 64.46 0 M64.46 0 C64.46 20.25, 64.46 40.51, 64.46 64.4 M64.46 0 C64.46 15.03, 64.46 30.05, 64.46 64.4 M64.46 64.4 C47.51 64.4, 30.55 64.4, 0 64.4 M64.46 64.4 C49.98 64.4, 35.49 64.4, 0 64.4 M0 64.4 C0 43.55, 0 22.7, 0 0 M0 64.4 C0 41.23, 0 18.05, 0 0" stroke="#000000" stroke-width="2" fill="none"></path></g><g stroke-linecap="round"><g transform="translate(39.17729930620112 37.439278635807455) rotate(0 -3.0767740999999944 13.448499999999996)"><path d="M0 0 C-4.51 9.02, -9.02 18.04, -12.73 25.47 M0 0 C-2.55 5.1, -5.09 10.19, -12.73 25.47 M-12.73 25.47 C-9.03 25.9, -5.33 26.33, -0.52 26.9 M-12.73 25.47 C-8.97 25.91, -5.21 26.35, -0.52 26.9 M-0.52 26.9 C2.22 21.61, 4.95 16.32, 6.58 13.18 M-0.52 26.9 C2.25 21.55, 5.02 16.2, 6.58 13.18 M6.58 13.18 C4.88 9.41, 3.18 5.63, 0.9 0.56 M6.58 13.18 C5.15 10.01, 3.72 6.84, 0.9 0.56" stroke="#000000" stroke-width="2" fill="none"></path></g></g><mask></mask><g stroke-linecap="round"><g transform="translate(63.66401950620116 53.33627863580739) rotate(0 -12.746279999999985 -11)"><path d="M0 0 C-3.09 -6.69, -6.18 -13.39, -14.96 -32.42 M0 0 C-5.76 -12.47, -11.51 -24.94, -14.96 -32.42 M-14.96 -32.42 C-18.21 -32.55, -21.46 -32.69, -29.17 -33 M-14.96 -32.42 C-19.79 -32.62, -24.62 -32.81, -29.17 -33 M-29.17 -33 C-29.44 -30.39, -29.7 -27.79, -30.18 -23 M-29.17 -33 C-29.45 -30.25, -29.73 -27.5, -30.18 -23 M-30.18 -23 C-28.48 -22.77, -26.78 -22.53, -22.9 -22 M-30.18 -23 C-28.69 -22.8, -27.21 -22.59, -22.9 -22 M-22.9 -22 C-18.78 -13.12, -14.66 -4.24, -7.87 10.42 M-22.9 -22 C-19.3 -14.24, -15.7 -6.48, -7.87 10.42 M-7.87 10.42 C-3.38 10.65, 1.1 10.87, 3.69 11 M-7.87 10.42 C-3.72 10.63, 0.44 10.84, 3.69 11 M3.69 11 C3.94 8.53, 4.18 6.06, 4.69 1 M3.69 11 C3.96 8.27, 4.23 5.55, 4.69 1 M4.69 1 C4.42 0.73, 4.15 0.46, 3.69 0 M4.69 1 C4.3 0.61, 3.92 0.23, 3.69 0" stroke="#000000" stroke-width="2" fill="none"></path></g></g><mask></mask><g transform="translate(10 80.06464243549169) rotate(0 36.41666793823242 12)"><text x="36.41666793823242" y="0" font-family="Virgil, Segoe UI Emoji" font-size="20px" fill="#000000" text-anchor="middle" style="white-space: pre;" direction="ltr" dominant-baseline="text-before-edge">Lambda</text></g><g stroke-linecap="round"><g transform="translate(83.41666793823242 44.77884659194876) rotate(0 72.53120643683121 0.008612756593095128)"><path d="M-0.13 -0.12 C24.01 -0.12, 120.74 -0.05, 144.91 -0.04 M0.07 0.13 C24.25 0.16, 121.07 0.13, 145.19 0.13" stroke="#1e1e1e" stroke-width="2" fill="none"></path></g><g transform="translate(83.41666793823242 44.77884659194876) rotate(0 72.53120643683121 0.008612756593095128)"><path d="M117 10.39 C126.8 6.6, 137 2.96, 145.19 0.13 M117 10.39 C124.69 7.63, 132.81 4.83, 145.19 0.13" stroke="#1e1e1e" stroke-width="2" fill="none"></path></g><g transform="translate(83.41666793823242 44.77884659194876) rotate(0 72.53120643683121 0.008612756593095128)"><path d="M117 -10.13 C126.79 -6.61, 136.99 -2.95, 145.19 0.13 M117 -10.13 C124.71 -7.19, 132.82 -4.29, 145.19 0.13" stroke="#1e1e1e" stroke-width="2" fill="none"></path></g></g><mask></mask><g stroke-linecap="round"><g transform="translate(312.4166679382324 45.77884659194876) rotate(0 68.04219961849464 -0.08270206449478223)"><path d="M0.13 0.02 C22.79 0.05, 113.43 0.04, 136.07 0.04 M0.02 -0.09 C22.65 -0.1, 113.35 -0.24, 135.99 -0.2" stroke="#1e1e1e" stroke-width="2" fill="none"></path></g><g transform="translate(312.4166679382324 45.77884659194876) rotate(0 68.04219961849464 -0.08270206449478223)"><path d="M107.79 10.06 C118.61 6.24, 129.39 2.11, 135.99 -0.2 M107.79 10.06 C116.8 6.91, 125.46 3.56, 135.99 -0.2" stroke="#1e1e1e" stroke-width="2" fill="none"></path></g><g transform="translate(312.4166679382324 45.77884659194876) rotate(0 68.04219961849464 -0.08270206449478223)"><path d="M107.79 -10.46 C118.58 -6.45, 129.37 -2.76, 135.99 -0.2 M107.79 -10.46 C116.77 -7.14, 125.43 -4.01, 135.99 -0.2" stroke="#1e1e1e" stroke-width="2" fill="none"></path></g></g><mask></mask><g stroke-linecap="round"><g transform="translate(459.08841299792675 18.939185907725346) rotate(0 23.45378376076087 23.314363245824325)" fill-rule="evenodd"><path d="M0 0 L14.72 -8.94 L23.45 -3.62 L32.44 -8.46 L47.41 1.45 L47.41 12.08 L55.39 16.67 L55.64 31.65 L48.16 35.27 L48.16 46.15 L31.94 55.57 L23.45 50.49 L14.47 55.57 L-1 45.9 L-1 36 L-8.73 31.41 L-8.73 16.43 L-0.25 10.87 L0 0" stroke="none" stroke-width="0" fill="#ffffff" fill-rule="evenodd"></path><path d="M0 0 C4.46 -2.71, 8.92 -5.42, 14.72 -8.94 M0 0 C4.52 -2.74, 9.03 -5.49, 14.72 -8.94 M14.72 -8.94 C17.92 -6.99, 21.13 -5.04, 23.45 -3.62 M14.72 -8.94 C18.19 -6.83, 21.66 -4.71, 23.45 -3.62 M23.45 -3.62 C25.48 -4.71, 27.5 -5.8, 32.44 -8.46 M23.45 -3.62 C26.86 -5.46, 30.27 -7.29, 32.44 -8.46 M32.44 -8.46 C36.19 -5.97, 39.94 -3.49, 47.41 1.45 M32.44 -8.46 C35.68 -6.31, 38.92 -4.17, 47.41 1.45 M47.41 1.45 C47.41 5.41, 47.41 9.36, 47.41 12.08 M47.41 1.45 C47.41 5.66, 47.41 9.88, 47.41 12.08 M47.41 12.08 C49.32 13.18, 51.24 14.28, 55.39 16.67 M47.41 12.08 C49.92 13.53, 52.44 14.97, 55.39 16.67 M55.39 16.67 C55.46 21.03, 55.54 25.4, 55.64 31.65 M55.39 16.67 C55.48 22.06, 55.57 27.45, 55.64 31.65 M55.64 31.65 C53.27 32.8, 50.9 33.94, 48.16 35.27 M55.64 31.65 C53.42 32.72, 51.21 33.8, 48.16 35.27 M48.16 35.27 C48.16 38.8, 48.16 42.32, 48.16 46.15 M48.16 35.27 C48.16 39.08, 48.16 42.89, 48.16 46.15 M48.16 46.15 C43.17 49.04, 38.19 51.94, 31.94 55.57 M48.16 46.15 C41.76 49.86, 35.37 53.57, 31.94 55.57 M31.94 55.57 C29.32 54, 26.71 52.44, 23.45 50.49 M31.94 55.57 C29.99 54.41, 28.05 53.24, 23.45 50.49 M23.45 50.49 C20 52.45, 16.54 54.4, 14.47 55.57 M23.45 50.49 C20.12 52.38, 16.78 54.26, 14.47 55.57 M14.47 55.57 C10.21 52.91, 5.95 50.24, -1 45.9 M14.47 55.57 C9.27 52.32, 4.07 49.07, -1 45.9 M-1 45.9 C-1 42.28, -1 38.65, -1 36 M-1 45.9 C-1 43.71, -1 41.52, -1 36 M-1 36 C-3.74 34.37, -6.48 32.74, -8.73 31.41 M-1 36 C-4.03 34.2, -7.06 32.4, -8.73 31.41 M-8.73 31.41 C-8.73 28.18, -8.73 24.96, -8.73 16.43 M-8.73 31.41 C-8.73 27.42, -8.73 23.44, -8.73 16.43 M-8.73 16.43 C-6.46 14.94, -4.19 13.45, -0.25 10.87 M-8.73 16.43 C-5.37 14.22, -2 12.02, -0.25 10.87 M-0.25 10.87 C-0.16 7.18, -0.08 3.48, 0 0 M-0.25 10.87 C-0.19 8.07, -0.12 5.26, 0 0 M0 0 C0 0, 0 0, 0 0 M0 0 C0 0, 0 0, 0 0" stroke="#279185" stroke-width="2" fill="none"></path></g></g><mask></mask><g stroke-linecap="round" transform="translate(493.9829847994788 19.092367092367) rotate(0 2.489604989605027 2.489604989605027)"><path d="M4.98 2.49 C4.98 2.63, 4.97 2.78, 4.94 2.92 C4.92 3.06, 4.88 3.21, 4.83 3.34 C4.78 3.48, 4.72 3.61, 4.65 3.73 C4.57 3.86, 4.49 3.98, 4.4 4.09 C4.3 4.2, 4.2 4.3, 4.09 4.4 C3.98 4.49, 3.86 4.57, 3.73 4.65 C3.61 4.72, 3.48 4.78, 3.34 4.83 C3.21 4.88, 3.06 4.92, 2.92 4.94 C2.78 4.97, 2.63 4.98, 2.49 4.98 C2.35 4.98, 2.2 4.97, 2.06 4.94 C1.92 4.92, 1.77 4.88, 1.64 4.83 C1.5 4.78, 1.37 4.72, 1.24 4.65 C1.12 4.57, 1 4.49, 0.89 4.4 C0.78 4.3, 0.68 4.2, 0.58 4.09 C0.49 3.98, 0.41 3.86, 0.33 3.73 C0.26 3.61, 0.2 3.48, 0.15 3.34 C0.1 3.21, 0.06 3.06, 0.04 2.92 C0.01 2.78, 0 2.63, 0 2.49 C0 2.35, 0.01 2.2, 0.04 2.06 C0.06 1.92, 0.1 1.77, 0.15 1.64 C0.2 1.5, 0.26 1.37, 0.33 1.24 C0.41 1.12, 0.49 1, 0.58 0.89 C0.68 0.78, 0.78 0.68, 0.89 0.58 C1 0.49, 1.12 0.41, 1.24 0.33 C1.37 0.26, 1.5 0.2, 1.64 0.15 C1.77 0.1, 1.92 0.06, 2.06 0.04 C2.2 0.01, 2.35 0, 2.49 0 C2.63 0, 2.78 0.01, 2.92 0.04 C3.06 0.06, 3.21 0.1, 3.34 0.15 C3.48 0.2, 3.61 0.26, 3.73 0.33 C3.86 0.41, 3.98 0.49, 4.09 0.58 C4.2 0.68, 4.3 0.78, 4.4 0.89 C4.49 1, 4.57 1.12, 4.65 1.24 C4.72 1.37, 4.78 1.5, 4.83 1.64 C4.88 1.77, 4.92 1.92, 4.94 2.06 C4.97 2.2, 4.97 2.42, 4.98 2.49 C4.99 2.56, 4.99 2.42, 4.98 2.49" stroke="none" stroke-width="0" fill="#ffffff"></path><path d="M4.98 2.49 C4.98 2.63, 4.97 2.78, 4.94 2.92 C4.92 3.06, 4.88 3.21, 4.83 3.34 C4.78 3.48, 4.72 3.61, 4.65 3.73 C4.57 3.86, 4.49 3.98, 4.4 4.09 C4.3 4.2, 4.2 4.3, 4.09 4.4 C3.98 4.49, 3.86 4.57, 3.73 4.65 C3.61 4.72, 3.48 4.78, 3.34 4.83 C3.21 4.88, 3.06 4.92, 2.92 4.94 C2.78 4.97, 2.63 4.98, 2.49 4.98 C2.35 4.98, 2.2 4.97, 2.06 4.94 C1.92 4.92, 1.77 4.88, 1.64 4.83 C1.5 4.78, 1.37 4.72, 1.24 4.65 C1.12 4.57, 1 4.49, 0.89 4.4 C0.78 4.3, 0.68 4.2, 0.58 4.09 C0.49 3.98, 0.41 3.86, 0.33 3.73 C0.26 3.61, 0.2 3.48, 0.15 3.34 C0.1 3.21, 0.06 3.06, 0.04 2.92 C0.01 2.78, 0 2.63, 0 2.49 C0 2.35, 0.01 2.2, 0.04 2.06 C0.06 1.92, 0.1 1.77, 0.15 1.64 C0.2 1.5, 0.26 1.37, 0.33 1.24 C0.41 1.12, 0.49 1, 0.58 0.89 C0.68 0.78, 0.78 0.68, 0.89 0.58 C1 0.49, 1.12 0.41, 1.24 0.33 C1.37 0.26, 1.5 0.2, 1.64 0.15 C1.77 0.1, 1.92 0.06, 2.06 0.04 C2.2 0.01, 2.35 0, 2.49 0 C2.63 0, 2.78 0.01, 2.92 0.04 C3.06 0.06, 3.21 0.1, 3.34 0.15 C3.48 0.2, 3.61 0.26, 3.73 0.33 C3.86 0.41, 3.98 0.49, 4.09 0.58 C4.2 0.68, 4.3 0.78, 4.4 0.89 C4.49 1, 4.57 1.12, 4.65 1.24 C4.72 1.37, 4.78 1.5, 4.83 1.64 C4.88 1.77, 4.92 1.92, 4.94 2.06 C4.97 2.2, 4.97 2.42, 4.98 2.49 C4.99 2.56, 4.99 2.42, 4.98 2.49" stroke="#279185" stroke-width="2" fill="none"></path></g><g stroke-linecap="round" transform="translate(487.12232743881987 34.82907632907825) rotate(0 2.489604989605027 2.489604989605027)"><path d="M4.98 2.49 C4.98 2.63, 4.97 2.78, 4.94 2.92 C4.92 3.06, 4.88 3.21, 4.83 3.34 C4.78 3.48, 4.72 3.61, 4.65 3.73 C4.57 3.86, 4.49 3.98, 4.4 4.09 C4.3 4.2, 4.2 4.3, 4.09 4.4 C3.98 4.49, 3.86 4.57, 3.73 4.65 C3.61 4.72, 3.48 4.78, 3.34 4.83 C3.21 4.88, 3.06 4.92, 2.92 4.94 C2.78 4.97, 2.63 4.98, 2.49 4.98 C2.35 4.98, 2.2 4.97, 2.06 4.94 C1.92 4.92, 1.77 4.88, 1.64 4.83 C1.5 4.78, 1.37 4.72, 1.24 4.65 C1.12 4.57, 1 4.49, 0.89 4.4 C0.78 4.3, 0.68 4.2, 0.58 4.09 C0.49 3.98, 0.41 3.86, 0.33 3.73 C0.26 3.61, 0.2 3.48, 0.15 3.34 C0.1 3.21, 0.06 3.06, 0.04 2.92 C0.01 2.78, 0 2.63, 0 2.49 C0 2.35, 0.01 2.2, 0.04 2.06 C0.06 1.92, 0.1 1.77, 0.15 1.64 C0.2 1.5, 0.26 1.37, 0.33 1.24 C0.41 1.12, 0.49 1, 0.58 0.89 C0.68 0.78, 0.78 0.68, 0.89 0.58 C1 0.49, 1.12 0.41, 1.24 0.33 C1.37 0.26, 1.5 0.2, 1.64 0.15 C1.77 0.1, 1.92 0.06, 2.06 0.04 C2.2 0.01, 2.35 0, 2.49 0 C2.63 0, 2.78 0.01, 2.92 0.04 C3.06 0.06, 3.21 0.1, 3.34 0.15 C3.48 0.2, 3.61 0.26, 3.73 0.33 C3.86 0.41, 3.98 0.49, 4.09 0.58 C4.2 0.68, 4.3 0.78, 4.4 0.89 C4.49 1, 4.57 1.12, 4.65 1.24 C4.72 1.37, 4.78 1.5, 4.83 1.64 C4.88 1.77, 4.92 1.92, 4.94 2.06 C4.97 2.2, 4.97 2.42, 4.98 2.49 C4.99 2.56, 4.99 2.42, 4.98 2.49" stroke="none" stroke-width="0" fill="#ffffff"></path><path d="M4.98 2.49 C4.98 2.63, 4.97 2.78, 4.94 2.92 C4.92 3.06, 4.88 3.21, 4.83 3.34 C4.78 3.48, 4.72 3.61, 4.65 3.73 C4.57 3.86, 4.49 3.98, 4.4 4.09 C4.3 4.2, 4.2 4.3, 4.09 4.4 C3.98 4.49, 3.86 4.57, 3.73 4.65 C3.61 4.72, 3.48 4.78, 3.34 4.83 C3.21 4.88, 3.06 4.92, 2.92 4.94 C2.78 4.97, 2.63 4.98, 2.49 4.98 C2.35 4.98, 2.2 4.97, 2.06 4.94 C1.92 4.92, 1.77 4.88, 1.64 4.83 C1.5 4.78, 1.37 4.72, 1.24 4.65 C1.12 4.57, 1 4.49, 0.89 4.4 C0.78 4.3, 0.68 4.2, 0.58 4.09 C0.49 3.98, 0.41 3.86, 0.33 3.73 C0.26 3.61, 0.2 3.48, 0.15 3.34 C0.1 3.21, 0.06 3.06, 0.04 2.92 C0.01 2.78, 0 2.63, 0 2.49 C0 2.35, 0.01 2.2, 0.04 2.06 C0.06 1.92, 0.1 1.77, 0.15 1.64 C0.2 1.5, 0.26 1.37, 0.33 1.24 C0.41 1.12, 0.49 1, 0.58 0.89 C0.68 0.78, 0.78 0.68, 0.89 0.58 C1 0.49, 1.12 0.41, 1.24 0.33 C1.37 0.26, 1.5 0.2, 1.64 0.15 C1.77 0.1, 1.92 0.06, 2.06 0.04 C2.2 0.01, 2.35 0, 2.49 0 C2.63 0, 2.78 0.01, 2.92 0.04 C3.06 0.06, 3.21 0.1, 3.34 0.15 C3.48 0.2, 3.61 0.26, 3.73 0.33 C3.86 0.41, 3.98 0.49, 4.09 0.58 C4.2 0.68, 4.3 0.78, 4.4 0.89 C4.49 1, 4.57 1.12, 4.65 1.24 C4.72 1.37, 4.78 1.5, 4.83 1.64 C4.88 1.77, 4.92 1.92, 4.94 2.06 C4.97 2.2, 4.97 2.42, 4.98 2.49 C4.99 2.56, 4.99 2.42, 4.98 2.49" stroke="#279185" stroke-width="2" fill="none"></path></g><g stroke-linecap="round" transform="translate(497.4347222512106 58.591179091179015) rotate(0 2.489604989605027 2.489604989605027)"><path d="M4.98 2.49 C4.98 2.63, 4.97 2.78, 4.94 2.92 C4.92 3.06, 4.88 3.21, 4.83 3.34 C4.78 3.48, 4.72 3.61, 4.65 3.73 C4.57 3.86, 4.49 3.98, 4.4 4.09 C4.3 4.2, 4.2 4.3, 4.09 4.4 C3.98 4.49, 3.86 4.57, 3.73 4.65 C3.61 4.72, 3.48 4.78, 3.34 4.83 C3.21 4.88, 3.06 4.92, 2.92 4.94 C2.78 4.97, 2.63 4.98, 2.49 4.98 C2.35 4.98, 2.2 4.97, 2.06 4.94 C1.92 4.92, 1.77 4.88, 1.64 4.83 C1.5 4.78, 1.37 4.72, 1.24 4.65 C1.12 4.57, 1 4.49, 0.89 4.4 C0.78 4.3, 0.68 4.2, 0.58 4.09 C0.49 3.98, 0.41 3.86, 0.33 3.73 C0.26 3.61, 0.2 3.48, 0.15 3.34 C0.1 3.21, 0.06 3.06, 0.04 2.92 C0.01 2.78, 0 2.63, 0 2.49 C0 2.35, 0.01 2.2, 0.04 2.06 C0.06 1.92, 0.1 1.77, 0.15 1.64 C0.2 1.5, 0.26 1.37, 0.33 1.24 C0.41 1.12, 0.49 1, 0.58 0.89 C0.68 0.78, 0.78 0.68, 0.89 0.58 C1 0.49, 1.12 0.41, 1.24 0.33 C1.37 0.26, 1.5 0.2, 1.64 0.15 C1.77 0.1, 1.92 0.06, 2.06 0.04 C2.2 0.01, 2.35 0, 2.49 0 C2.63 0, 2.78 0.01, 2.92 0.04 C3.06 0.06, 3.21 0.1, 3.34 0.15 C3.48 0.2, 3.61 0.26, 3.73 0.33 C3.86 0.41, 3.98 0.49, 4.09 0.58 C4.2 0.68, 4.3 0.78, 4.4 0.89 C4.49 1, 4.57 1.12, 4.65 1.24 C4.72 1.37, 4.78 1.5, 4.83 1.64 C4.88 1.77, 4.92 1.92, 4.94 2.06 C4.97 2.2, 4.97 2.42, 4.98 2.49 C4.99 2.56, 4.99 2.42, 4.98 2.49" stroke="none" stroke-width="0" fill="#ffffff"></path><path d="M4.98 2.49 C4.98 2.63, 4.97 2.78, 4.94 2.92 C4.92 3.06, 4.88 3.21, 4.83 3.34 C4.78 3.48, 4.72 3.61, 4.65 3.73 C4.57 3.86, 4.49 3.98, 4.4 4.09 C4.3 4.2, 4.2 4.3, 4.09 4.4 C3.98 4.49, 3.86 4.57, 3.73 4.65 C3.61 4.72, 3.48 4.78, 3.34 4.83 C3.21 4.88, 3.06 4.92, 2.92 4.94 C2.78 4.97, 2.63 4.98, 2.49 4.98 C2.35 4.98, 2.2 4.97, 2.06 4.94 C1.92 4.92, 1.77 4.88, 1.64 4.83 C1.5 4.78, 1.37 4.72, 1.24 4.65 C1.12 4.57, 1 4.49, 0.89 4.4 C0.78 4.3, 0.68 4.2, 0.58 4.09 C0.49 3.98, 0.41 3.86, 0.33 3.73 C0.26 3.61, 0.2 3.48, 0.15 3.34 C0.1 3.21, 0.06 3.06, 0.04 2.92 C0.01 2.78, 0 2.63, 0 2.49 C0 2.35, 0.01 2.2, 0.04 2.06 C0.06 1.92, 0.1 1.77, 0.15 1.64 C0.2 1.5, 0.26 1.37, 0.33 1.24 C0.41 1.12, 0.49 1, 0.58 0.89 C0.68 0.78, 0.78 0.68, 0.89 0.58 C1 0.49, 1.12 0.41, 1.24 0.33 C1.37 0.26, 1.5 0.2, 1.64 0.15 C1.77 0.1, 1.92 0.06, 2.06 0.04 C2.2 0.01, 2.35 0, 2.49 0 C2.63 0, 2.78 0.01, 2.92 0.04 C3.06 0.06, 3.21 0.1, 3.34 0.15 C3.48 0.2, 3.61 0.26, 3.73 0.33 C3.86 0.41, 3.98 0.49, 4.09 0.58 C4.2 0.68, 4.3 0.78, 4.4 0.89 C4.49 1, 4.57 1.12, 4.65 1.24 C4.72 1.37, 4.78 1.5, 4.83 1.64 C4.88 1.77, 4.92 1.92, 4.94 2.06 C4.97 2.2, 4.97 2.42, 4.98 2.49 C4.99 2.56, 4.99 2.42, 4.98 2.49" stroke="#279185" stroke-width="2" fill="none"></path></g><g stroke-linecap="round" transform="translate(487.4711443876349 48.43961983962015) rotate(0 2.489604989605027 2.489604989605027)"><path d="M4.98 2.49 C4.98 2.63, 4.97 2.78, 4.94 2.92 C4.92 3.06, 4.88 3.21, 4.83 3.34 C4.78 3.48, 4.72 3.61, 4.65 3.73 C4.57 3.86, 4.49 3.98, 4.4 4.09 C4.3 4.2, 4.2 4.3, 4.09 4.4 C3.98 4.49, 3.86 4.57, 3.73 4.65 C3.61 4.72, 3.48 4.78, 3.34 4.83 C3.21 4.88, 3.06 4.92, 2.92 4.94 C2.78 4.97, 2.63 4.98, 2.49 4.98 C2.35 4.98, 2.2 4.97, 2.06 4.94 C1.92 4.92, 1.77 4.88, 1.64 4.83 C1.5 4.78, 1.37 4.72, 1.24 4.65 C1.12 4.57, 1 4.49, 0.89 4.4 C0.78 4.3, 0.68 4.2, 0.58 4.09 C0.49 3.98, 0.41 3.86, 0.33 3.73 C0.26 3.61, 0.2 3.48, 0.15 3.34 C0.1 3.21, 0.06 3.06, 0.04 2.92 C0.01 2.78, 0 2.63, 0 2.49 C0 2.35, 0.01 2.2, 0.04 2.06 C0.06 1.92, 0.1 1.77, 0.15 1.64 C0.2 1.5, 0.26 1.37, 0.33 1.24 C0.41 1.12, 0.49 1, 0.58 0.89 C0.68 0.78, 0.78 0.68, 0.89 0.58 C1 0.49, 1.12 0.41, 1.24 0.33 C1.37 0.26, 1.5 0.2, 1.64 0.15 C1.77 0.1, 1.92 0.06, 2.06 0.04 C2.2 0.01, 2.35 0, 2.49 0 C2.63 0, 2.78 0.01, 2.92 0.04 C3.06 0.06, 3.21 0.1, 3.34 0.15 C3.48 0.2, 3.61 0.26, 3.73 0.33 C3.86 0.41, 3.98 0.49, 4.09 0.58 C4.2 0.68, 4.3 0.78, 4.4 0.89 C4.49 1, 4.57 1.12, 4.65 1.24 C4.72 1.37, 4.78 1.5, 4.83 1.64 C4.88 1.77, 4.92 1.92, 4.94 2.06 C4.97 2.2, 4.97 2.42, 4.98 2.49 C4.99 2.56, 4.99 2.42, 4.98 2.49" stroke="none" stroke-width="0" fill="#ffffff"></path><path d="M4.98 2.49 C4.98 2.63, 4.97 2.78, 4.94 2.92 C4.92 3.06, 4.88 3.21, 4.83 3.34 C4.78 3.48, 4.72 3.61, 4.65 3.73 C4.57 3.86, 4.49 3.98, 4.4 4.09 C4.3 4.2, 4.2 4.3, 4.09 4.4 C3.98 4.49, 3.86 4.57, 3.73 4.65 C3.61 4.72, 3.48 4.78, 3.34 4.83 C3.21 4.88, 3.06 4.92, 2.92 4.94 C2.78 4.97, 2.63 4.98, 2.49 4.98 C2.35 4.98, 2.2 4.97, 2.06 4.94 C1.92 4.92, 1.77 4.88, 1.64 4.83 C1.5 4.78, 1.37 4.72, 1.24 4.65 C1.12 4.57, 1 4.49, 0.89 4.4 C0.78 4.3, 0.68 4.2, 0.58 4.09 C0.49 3.98, 0.41 3.86, 0.33 3.73 C0.26 3.61, 0.2 3.48, 0.15 3.34 C0.1 3.21, 0.06 3.06, 0.04 2.92 C0.01 2.78, 0 2.63, 0 2.49 C0 2.35, 0.01 2.2, 0.04 2.06 C0.06 1.92, 0.1 1.77, 0.15 1.64 C0.2 1.5, 0.26 1.37, 0.33 1.24 C0.41 1.12, 0.49 1, 0.58 0.89 C0.68 0.78, 0.78 0.68, 0.89 0.58 C1 0.49, 1.12 0.41, 1.24 0.33 C1.37 0.26, 1.5 0.2, 1.64 0.15 C1.77 0.1, 1.92 0.06, 2.06 0.04 C2.2 0.01, 2.35 0, 2.49 0 C2.63 0, 2.78 0.01, 2.92 0.04 C3.06 0.06, 3.21 0.1, 3.34 0.15 C3.48 0.2, 3.61 0.26, 3.73 0.33 C3.86 0.41, 3.98 0.49, 4.09 0.58 C4.2 0.68, 4.3 0.78, 4.4 0.89 C4.49 1, 4.57 1.12, 4.65 1.24 C4.72 1.37, 4.78 1.5, 4.83 1.64 C4.88 1.77, 4.92 1.92, 4.94 2.06 C4.97 2.2, 4.97 2.42, 4.98 2.49 C4.99 2.56, 4.99 2.42, 4.98 2.49" stroke="#279185" stroke-width="2" fill="none"></path></g><g stroke-linecap="round" transform="translate(471.4711443876349 60.23961983961942) rotate(0 2.489604989605027 2.489604989605027)"><path d="M4.98 2.49 C4.98 2.63, 4.97 2.78, 4.94 2.92 C4.92 3.06, 4.88 3.21, 4.83 3.34 C4.78 3.48, 4.72 3.61, 4.65 3.73 C4.57 3.86, 4.49 3.98, 4.4 4.09 C4.3 4.2, 4.2 4.3, 4.09 4.4 C3.98 4.49, 3.86 4.57, 3.73 4.65 C3.61 4.72, 3.48 4.78, 3.34 4.83 C3.21 4.88, 3.06 4.92, 2.92 4.94 C2.78 4.97, 2.63 4.98, 2.49 4.98 C2.35 4.98, 2.2 4.97, 2.06 4.94 C1.92 4.92, 1.77 4.88, 1.64 4.83 C1.5 4.78, 1.37 4.72, 1.24 4.65 C1.12 4.57, 1 4.49, 0.89 4.4 C0.78 4.3, 0.68 4.2, 0.58 4.09 C0.49 3.98, 0.41 3.86, 0.33 3.73 C0.26 3.61, 0.2 3.48, 0.15 3.34 C0.1 3.21, 0.06 3.06, 0.04 2.92 C0.01 2.78, 0 2.63, 0 2.49 C0 2.35, 0.01 2.2, 0.04 2.06 C0.06 1.92, 0.1 1.77, 0.15 1.64 C0.2 1.5, 0.26 1.37, 0.33 1.24 C0.41 1.12, 0.49 1, 0.58 0.89 C0.68 0.78, 0.78 0.68, 0.89 0.58 C1 0.49, 1.12 0.41, 1.24 0.33 C1.37 0.26, 1.5 0.2, 1.64 0.15 C1.77 0.1, 1.92 0.06, 2.06 0.04 C2.2 0.01, 2.35 0, 2.49 0 C2.63 0, 2.78 0.01, 2.92 0.04 C3.06 0.06, 3.21 0.1, 3.34 0.15 C3.48 0.2, 3.61 0.26, 3.73 0.33 C3.86 0.41, 3.98 0.49, 4.09 0.58 C4.2 0.68, 4.3 0.78, 4.4 0.89 C4.49 1, 4.57 1.12, 4.65 1.24 C4.72 1.37, 4.78 1.5, 4.83 1.64 C4.88 1.77, 4.92 1.92, 4.94 2.06 C4.97 2.2, 4.97 2.42, 4.98 2.49 C4.99 2.56, 4.99 2.42, 4.98 2.49" stroke="none" stroke-width="0" fill="#ffffff"></path><path d="M4.98 2.49 C4.98 2.63, 4.97 2.78, 4.94 2.92 C4.92 3.06, 4.88 3.21, 4.83 3.34 C4.78 3.48, 4.72 3.61, 4.65 3.73 C4.57 3.86, 4.49 3.98, 4.4 4.09 C4.3 4.2, 4.2 4.3, 4.09 4.4 C3.98 4.49, 3.86 4.57, 3.73 4.65 C3.61 4.72, 3.48 4.78, 3.34 4.83 C3.21 4.88, 3.06 4.92, 2.92 4.94 C2.78 4.97, 2.63 4.98, 2.49 4.98 C2.35 4.98, 2.2 4.97, 2.06 4.94 C1.92 4.92, 1.77 4.88, 1.64 4.83 C1.5 4.78, 1.37 4.72, 1.24 4.65 C1.12 4.57, 1 4.49, 0.89 4.4 C0.78 4.3, 0.68 4.2, 0.58 4.09 C0.49 3.98, 0.41 3.86, 0.33 3.73 C0.26 3.61, 0.2 3.48, 0.15 3.34 C0.1 3.21, 0.06 3.06, 0.04 2.92 C0.01 2.78, 0 2.63, 0 2.49 C0 2.35, 0.01 2.2, 0.04 2.06 C0.06 1.92, 0.1 1.77, 0.15 1.64 C0.2 1.5, 0.26 1.37, 0.33 1.24 C0.41 1.12, 0.49 1, 0.58 0.89 C0.68 0.78, 0.78 0.68, 0.89 0.58 C1 0.49, 1.12 0.41, 1.24 0.33 C1.37 0.26, 1.5 0.2, 1.64 0.15 C1.77 0.1, 1.92 0.06, 2.06 0.04 C2.2 0.01, 2.35 0, 2.49 0 C2.63 0, 2.78 0.01, 2.92 0.04 C3.06 0.06, 3.21 0.1, 3.34 0.15 C3.48 0.2, 3.61 0.26, 3.73 0.33 C3.86 0.41, 3.98 0.49, 4.09 0.58 C4.2 0.68, 4.3 0.78, 4.4 0.89 C4.49 1, 4.57 1.12, 4.65 1.24 C4.72 1.37, 4.78 1.5, 4.83 1.64 C4.88 1.77, 4.92 1.92, 4.94 2.06 C4.97 2.2, 4.97 2.42, 4.98 2.49 C4.99 2.56, 4.99 2.42, 4.98 2.49" stroke="#279185" stroke-width="2" fill="none"></path></g><g stroke-linecap="round" transform="translate(469.2711443876351 20.239619839619422) rotate(0 2.489604989605027 2.489604989605027)"><path d="M4.98 2.49 C4.98 2.63, 4.97 2.78, 4.94 2.92 C4.92 3.06, 4.88 3.21, 4.83 3.34 C4.78 3.48, 4.72 3.61, 4.65 3.73 C4.57 3.86, 4.49 3.98, 4.4 4.09 C4.3 4.2, 4.2 4.3, 4.09 4.4 C3.98 4.49, 3.86 4.57, 3.73 4.65 C3.61 4.72, 3.48 4.78, 3.34 4.83 C3.21 4.88, 3.06 4.92, 2.92 4.94 C2.78 4.97, 2.63 4.98, 2.49 4.98 C2.35 4.98, 2.2 4.97, 2.06 4.94 C1.92 4.92, 1.77 4.88, 1.64 4.83 C1.5 4.78, 1.37 4.72, 1.24 4.65 C1.12 4.57, 1 4.49, 0.89 4.4 C0.78 4.3, 0.68 4.2, 0.58 4.09 C0.49 3.98, 0.41 3.86, 0.33 3.73 C0.26 3.61, 0.2 3.48, 0.15 3.34 C0.1 3.21, 0.06 3.06, 0.04 2.92 C0.01 2.78, 0 2.63, 0 2.49 C0 2.35, 0.01 2.2, 0.04 2.06 C0.06 1.92, 0.1 1.77, 0.15 1.64 C0.2 1.5, 0.26 1.37, 0.33 1.24 C0.41 1.12, 0.49 1, 0.58 0.89 C0.68 0.78, 0.78 0.68, 0.89 0.58 C1 0.49, 1.12 0.41, 1.24 0.33 C1.37 0.26, 1.5 0.2, 1.64 0.15 C1.77 0.1, 1.92 0.06, 2.06 0.04 C2.2 0.01, 2.35 0, 2.49 0 C2.63 0, 2.78 0.01, 2.92 0.04 C3.06 0.06, 3.21 0.1, 3.34 0.15 C3.48 0.2, 3.61 0.26, 3.73 0.33 C3.86 0.41, 3.98 0.49, 4.09 0.58 C4.2 0.68, 4.3 0.78, 4.4 0.89 C4.49 1, 4.57 1.12, 4.65 1.24 C4.72 1.37, 4.78 1.5, 4.83 1.64 C4.88 1.77, 4.92 1.92, 4.94 2.06 C4.97 2.2, 4.97 2.42, 4.98 2.49 C4.99 2.56, 4.99 2.42, 4.98 2.49" stroke="none" stroke-width="0" fill="#ffffff"></path><path d="M4.98 2.49 C4.98 2.63, 4.97 2.78, 4.94 2.92 C4.92 3.06, 4.88 3.21, 4.83 3.34 C4.78 3.48, 4.72 3.61, 4.65 3.73 C4.57 3.86, 4.49 3.98, 4.4 4.09 C4.3 4.2, 4.2 4.3, 4.09 4.4 C3.98 4.49, 3.86 4.57, 3.73 4.65 C3.61 4.72, 3.48 4.78, 3.34 4.83 C3.21 4.88, 3.06 4.92, 2.92 4.94 C2.78 4.97, 2.63 4.98, 2.49 4.98 C2.35 4.98, 2.2 4.97, 2.06 4.94 C1.92 4.92, 1.77 4.88, 1.64 4.83 C1.5 4.78, 1.37 4.72, 1.24 4.65 C1.12 4.57, 1 4.49, 0.89 4.4 C0.78 4.3, 0.68 4.2, 0.58 4.09 C0.49 3.98, 0.41 3.86, 0.33 3.73 C0.26 3.61, 0.2 3.48, 0.15 3.34 C0.1 3.21, 0.06 3.06, 0.04 2.92 C0.01 2.78, 0 2.63, 0 2.49 C0 2.35, 0.01 2.2, 0.04 2.06 C0.06 1.92, 0.1 1.77, 0.15 1.64 C0.2 1.5, 0.26 1.37, 0.33 1.24 C0.41 1.12, 0.49 1, 0.58 0.89 C0.68 0.78, 0.78 0.68, 0.89 0.58 C1 0.49, 1.12 0.41, 1.24 0.33 C1.37 0.26, 1.5 0.2, 1.64 0.15 C1.77 0.1, 1.92 0.06, 2.06 0.04 C2.2 0.01, 2.35 0, 2.49 0 C2.63 0, 2.78 0.01, 2.92 0.04 C3.06 0.06, 3.21 0.1, 3.34 0.15 C3.48 0.2, 3.61 0.26, 3.73 0.33 C3.86 0.41, 3.98 0.49, 4.09 0.58 C4.2 0.68, 4.3 0.78, 4.4 0.89 C4.49 1, 4.57 1.12, 4.65 1.24 C4.72 1.37, 4.78 1.5, 4.83 1.64 C4.88 1.77, 4.92 1.92, 4.94 2.06 C4.97 2.2, 4.97 2.42, 4.98 2.49 C4.99 2.56, 4.99 2.42, 4.98 2.49" stroke="#279185" stroke-width="2" fill="none"></path></g><g stroke-linecap="round" transform="translate(469.871144387635 47.63961983961906) rotate(0 2.489604989605027 2.489604989605027)"><path d="M4.98 2.49 C4.98 2.63, 4.97 2.78, 4.94 2.92 C4.92 3.06, 4.88 3.21, 4.83 3.34 C4.78 3.48, 4.72 3.61, 4.65 3.73 C4.57 3.86, 4.49 3.98, 4.4 4.09 C4.3 4.2, 4.2 4.3, 4.09 4.4 C3.98 4.49, 3.86 4.57, 3.73 4.65 C3.61 4.72, 3.48 4.78, 3.34 4.83 C3.21 4.88, 3.06 4.92, 2.92 4.94 C2.78 4.97, 2.63 4.98, 2.49 4.98 C2.35 4.98, 2.2 4.97, 2.06 4.94 C1.92 4.92, 1.77 4.88, 1.64 4.83 C1.5 4.78, 1.37 4.72, 1.24 4.65 C1.12 4.57, 1 4.49, 0.89 4.4 C0.78 4.3, 0.68 4.2, 0.58 4.09 C0.49 3.98, 0.41 3.86, 0.33 3.73 C0.26 3.61, 0.2 3.48, 0.15 3.34 C0.1 3.21, 0.06 3.06, 0.04 2.92 C0.01 2.78, 0 2.63, 0 2.49 C0 2.35, 0.01 2.2, 0.04 2.06 C0.06 1.92, 0.1 1.77, 0.15 1.64 C0.2 1.5, 0.26 1.37, 0.33 1.24 C0.41 1.12, 0.49 1, 0.58 0.89 C0.68 0.78, 0.78 0.68, 0.89 0.58 C1 0.49, 1.12 0.41, 1.24 0.33 C1.37 0.26, 1.5 0.2, 1.64 0.15 C1.77 0.1, 1.92 0.06, 2.06 0.04 C2.2 0.01, 2.35 0, 2.49 0 C2.63 0, 2.78 0.01, 2.92 0.04 C3.06 0.06, 3.21 0.1, 3.34 0.15 C3.48 0.2, 3.61 0.26, 3.73 0.33 C3.86 0.41, 3.98 0.49, 4.09 0.58 C4.2 0.68, 4.3 0.78, 4.4 0.89 C4.49 1, 4.57 1.12, 4.65 1.24 C4.72 1.37, 4.78 1.5, 4.83 1.64 C4.88 1.77, 4.92 1.92, 4.94 2.06 C4.97 2.2, 4.97 2.42, 4.98 2.49 C4.99 2.56, 4.99 2.42, 4.98 2.49" stroke="none" stroke-width="0" fill="#ffffff"></path><path d="M4.98 2.49 C4.98 2.63, 4.97 2.78, 4.94 2.92 C4.92 3.06, 4.88 3.21, 4.83 3.34 C4.78 3.48, 4.72 3.61, 4.65 3.73 C4.57 3.86, 4.49 3.98, 4.4 4.09 C4.3 4.2, 4.2 4.3, 4.09 4.4 C3.98 4.49, 3.86 4.57, 3.73 4.65 C3.61 4.72, 3.48 4.78, 3.34 4.83 C3.21 4.88, 3.06 4.92, 2.92 4.94 C2.78 4.97, 2.63 4.98, 2.49 4.98 C2.35 4.98, 2.2 4.97, 2.06 4.94 C1.92 4.92, 1.77 4.88, 1.64 4.83 C1.5 4.78, 1.37 4.72, 1.24 4.65 C1.12 4.57, 1 4.49, 0.89 4.4 C0.78 4.3, 0.68 4.2, 0.58 4.09 C0.49 3.98, 0.41 3.86, 0.33 3.73 C0.26 3.61, 0.2 3.48, 0.15 3.34 C0.1 3.21, 0.06 3.06, 0.04 2.92 C0.01 2.78, 0 2.63, 0 2.49 C0 2.35, 0.01 2.2, 0.04 2.06 C0.06 1.92, 0.1 1.77, 0.15 1.64 C0.2 1.5, 0.26 1.37, 0.33 1.24 C0.41 1.12, 0.49 1, 0.58 0.89 C0.68 0.78, 0.78 0.68, 0.89 0.58 C1 0.49, 1.12 0.41, 1.24 0.33 C1.37 0.26, 1.5 0.2, 1.64 0.15 C1.77 0.1, 1.92 0.06, 2.06 0.04 C2.2 0.01, 2.35 0, 2.49 0 C2.63 0, 2.78 0.01, 2.92 0.04 C3.06 0.06, 3.21 0.1, 3.34 0.15 C3.48 0.2, 3.61 0.26, 3.73 0.33 C3.86 0.41, 3.98 0.49, 4.09 0.58 C4.2 0.68, 4.3 0.78, 4.4 0.89 C4.49 1, 4.57 1.12, 4.65 1.24 C4.72 1.37, 4.78 1.5, 4.83 1.64 C4.88 1.77, 4.92 1.92, 4.94 2.06 C4.97 2.2, 4.97 2.42, 4.98 2.49 C4.99 2.56, 4.99 2.42, 4.98 2.49" stroke="#279185" stroke-width="2" fill="none"></path></g><g stroke-linecap="round" transform="translate(460.871144387635 33.63961983961906) rotate(0 2.489604989605027 2.489604989605027)"><path d="M4.98 2.49 C4.98 2.63, 4.97 2.78, 4.94 2.92 C4.92 3.06, 4.88 3.21, 4.83 3.34 C4.78 3.48, 4.72 3.61, 4.65 3.73 C4.57 3.86, 4.49 3.98, 4.4 4.09 C4.3 4.2, 4.2 4.3, 4.09 4.4 C3.98 4.49, 3.86 4.57, 3.73 4.65 C3.61 4.72, 3.48 4.78, 3.34 4.83 C3.21 4.88, 3.06 4.92, 2.92 4.94 C2.78 4.97, 2.63 4.98, 2.49 4.98 C2.35 4.98, 2.2 4.97, 2.06 4.94 C1.92 4.92, 1.77 4.88, 1.64 4.83 C1.5 4.78, 1.37 4.72, 1.24 4.65 C1.12 4.57, 1 4.49, 0.89 4.4 C0.78 4.3, 0.68 4.2, 0.58 4.09 C0.49 3.98, 0.41 3.86, 0.33 3.73 C0.26 3.61, 0.2 3.48, 0.15 3.34 C0.1 3.21, 0.06 3.06, 0.04 2.92 C0.01 2.78, 0 2.63, 0 2.49 C0 2.35, 0.01 2.2, 0.04 2.06 C0.06 1.92, 0.1 1.77, 0.15 1.64 C0.2 1.5, 0.26 1.37, 0.33 1.24 C0.41 1.12, 0.49 1, 0.58 0.89 C0.68 0.78, 0.78 0.68, 0.89 0.58 C1 0.49, 1.12 0.41, 1.24 0.33 C1.37 0.26, 1.5 0.2, 1.64 0.15 C1.77 0.1, 1.92 0.06, 2.06 0.04 C2.2 0.01, 2.35 0, 2.49 0 C2.63 0, 2.78 0.01, 2.92 0.04 C3.06 0.06, 3.21 0.1, 3.34 0.15 C3.48 0.2, 3.61 0.26, 3.73 0.33 C3.86 0.41, 3.98 0.49, 4.09 0.58 C4.2 0.68, 4.3 0.78, 4.4 0.89 C4.49 1, 4.57 1.12, 4.65 1.24 C4.72 1.37, 4.78 1.5, 4.83 1.64 C4.88 1.77, 4.92 1.92, 4.94 2.06 C4.97 2.2, 4.97 2.42, 4.98 2.49 C4.99 2.56, 4.99 2.42, 4.98 2.49" stroke="none" stroke-width="0" fill="#ffffff"></path><path d="M4.98 2.49 C4.98 2.63, 4.97 2.78, 4.94 2.92 C4.92 3.06, 4.88 3.21, 4.83 3.34 C4.78 3.48, 4.72 3.61, 4.65 3.73 C4.57 3.86, 4.49 3.98, 4.4 4.09 C4.3 4.2, 4.2 4.3, 4.09 4.4 C3.98 4.49, 3.86 4.57, 3.73 4.65 C3.61 4.72, 3.48 4.78, 3.34 4.83 C3.21 4.88, 3.06 4.92, 2.92 4.94 C2.78 4.97, 2.63 4.98, 2.49 4.98 C2.35 4.98, 2.2 4.97, 2.06 4.94 C1.92 4.92, 1.77 4.88, 1.64 4.83 C1.5 4.78, 1.37 4.72, 1.24 4.65 C1.12 4.57, 1 4.49, 0.89 4.4 C0.78 4.3, 0.68 4.2, 0.58 4.09 C0.49 3.98, 0.41 3.86, 0.33 3.73 C0.26 3.61, 0.2 3.48, 0.15 3.34 C0.1 3.21, 0.06 3.06, 0.04 2.92 C0.01 2.78, 0 2.63, 0 2.49 C0 2.35, 0.01 2.2, 0.04 2.06 C0.06 1.92, 0.1 1.77, 0.15 1.64 C0.2 1.5, 0.26 1.37, 0.33 1.24 C0.41 1.12, 0.49 1, 0.58 0.89 C0.68 0.78, 0.78 0.68, 0.89 0.58 C1 0.49, 1.12 0.41, 1.24 0.33 C1.37 0.26, 1.5 0.2, 1.64 0.15 C1.77 0.1, 1.92 0.06, 2.06 0.04 C2.2 0.01, 2.35 0, 2.49 0 C2.63 0, 2.78 0.01, 2.92 0.04 C3.06 0.06, 3.21 0.1, 3.34 0.15 C3.48 0.2, 3.61 0.26, 3.73 0.33 C3.86 0.41, 3.98 0.49, 4.09 0.58 C4.2 0.68, 4.3 0.78, 4.4 0.89 C4.49 1, 4.57 1.12, 4.65 1.24 C4.72 1.37, 4.78 1.5, 4.83 1.64 C4.88 1.77, 4.92 1.92, 4.94 2.06 C4.97 2.2, 4.97 2.42, 4.98 2.49 C4.99 2.56, 4.99 2.42, 4.98 2.49" stroke="#279185" stroke-width="2" fill="none"></path></g><g stroke-linecap="round"><g transform="translate(489.96074937724006 29.329224829224927) rotate(0 0 2.4000000000000057)"><path d="M0 0 C0 1.58, 0 3.17, 0 4.8 M0 0 C0 1.87, 0 3.74, 0 4.8" stroke="#279185" stroke-width="2" fill="none"></path></g></g><mask></mask><g stroke-linecap="round"><g transform="translate(459.1607493772399 22.329224829224927) rotate(0 5.199999999999932 -2.842170943040401e-14)"><path d="M0 0 C2.55 0, 5.1 0, 10.4 0 M0 0 C2.38 0, 4.77 0, 10.4 0" stroke="#279185" stroke-width="2" fill="none"></path></g></g><mask></mask><g stroke-linecap="round"><g transform="translate(482.36074937724015 15.92922482922529) rotate(0 0.1999999999999318 26.799999999999955)"><path d="M0 0 C0.16 20.91, 0.31 41.82, 0.4 53.6 M0 0 C0.09 12.5, 0.19 24.99, 0.4 53.6" stroke="#279185" stroke-width="2" fill="none"></path></g></g><mask></mask><g stroke-linecap="round"><g transform="translate(482.7607493772398 28.1292248292242) rotate(0 7 0)"><path d="M0 0 C5.19 0, 10.38 0, 14 0 M0 0 C4.59 0, 9.18 0, 14 0" stroke="#279185" stroke-width="2" fill="none"></path></g></g><mask></mask><g stroke-linecap="round"><g transform="translate(513.1607493772399 41.32922482922493) rotate(0 -6.999999999999886 4.799999999999983)"><path d="M0 0 C-3.13 0, -6.26 0, -14 0 M0 0 C-4.04 0, -8.08 0, -14 0 M-14 0 C-14 2.9, -14 5.79, -14 9.6 M-14 0 C-14 3.55, -14 7.11, -14 9.6" stroke="#279185" stroke-width="2" fill="none"></path></g></g><mask></mask><g stroke-linecap="round"><g transform="translate(493.3607493772397 50.92922482922347) rotate(0 2.800000000000068 2.842170943040401e-14)"><path d="M0 0 C1.26 0, 2.52 0, 5.6 0 M0 0 C2.12 0, 4.25 0, 5.6 0" stroke="#279185" stroke-width="2" fill="none"></path></g></g><mask></mask><g stroke-linecap="round"><g transform="translate(496.76074937724024 27.729224829224563) rotate(0 0 -1.4000000000000057)"><path d="M0 0 C0 -0.57, 0 -1.13, 0 -2.8 M0 0 C0 -0.83, 0 -1.65, 0 -2.8" stroke="#279185" stroke-width="2" fill="none"></path></g></g><mask></mask><g stroke-linecap="round"><g transform="translate(463.56074937724 22.92922482922529) rotate(0 -1.1368683772161603e-13 5)"><path d="M0 0 C0 3.39, 0 6.79, 0 10 M0 0 C0 2.01, 0 4.02, 0 10" stroke="#279185" stroke-width="2" fill="none"></path></g></g><mask></mask><g stroke-linecap="round"><g transform="translate(482.3607493772397 34.92922482922529) rotate(0 -5.2000000000000455 6.200000000000017)"><path d="M0 0 C-3.03 0, -6.07 0, -10.4 0 M0 0 C-2.84 0, -5.67 0, -10.4 0 M-10.4 0 C-10.4 2.7, -10.4 5.4, -10.4 12.4 M-10.4 0 C-10.4 4.55, -10.4 9.1, -10.4 12.4" stroke="#279185" stroke-width="2" fill="none"></path></g></g><mask></mask><g stroke-linecap="round"><g transform="translate(451.96074937724006 50.529224829225655) rotate(0 6.2000000000000455 6.400000000000006)"><path d="M0 0 C4.85 0.16, 9.69 0.31, 12.4 0.4 M0 0 C4.2 0.14, 8.4 0.27, 12.4 0.4 M12.4 0.4 C12.4 4.64, 12.4 8.87, 12.4 12.8 M12.4 0.4 C12.4 3.74, 12.4 7.09, 12.4 12.8" stroke="#279185" stroke-width="2" fill="none"></path></g></g><mask></mask><g stroke-linecap="round"><g transform="translate(470.16074937724034 63.32922482922493) rotate(0 -2.800000000000068 2.842170943040401e-14)"><path d="M0 0 C-1.99 0, -3.98 0, -5.6 0 M0 0 C-1.23 0, -2.47 0, -5.6 0" stroke="#279185" stroke-width="2" fill="none"></path></g></g><mask></mask><g stroke-linecap="round"><g transform="translate(491.56074937724 72.92922482922529) rotate(0 2.800000000000068 -6)"><path d="M0 0 C0 -3.62, 0 -7.24, 0 -12 M0 0 C0 -4.44, 0 -8.89, 0 -12 M0 -12 C1.84 -12, 3.68 -12, 5.6 -12 M0 -12 C2.14 -12, 4.28 -12, 5.6 -12" stroke="#279185" stroke-width="2" fill="none"></path></g></g><mask></mask><g transform="translate(455.0421967586876 79.00695920422493) rotate(0 26.983333587646484 12)"><text x="0" y="0" font-family="Virgil, Segoe UI Emoji" font-size="20px" fill="#000000" text-anchor="start" style="white-space: pre;" direction="ltr" dominant-baseline="text-before-edge">Model</text></g><g stroke-linecap="round"><g stroke-opacity="0.6" fill-opacity="0.6" transform="translate(459.08841299792675 140.73474798420636) rotate(0 23.45378376076087 23.314363245824325)" fill-rule="evenodd"><path d="M0 0 L14.72 -8.94 L23.45 -3.62 L32.44 -8.46 L47.41 1.45 L47.41 12.08 L55.39 16.67 L55.64 31.65 L48.16 35.27 L48.16 46.15 L31.94 55.57 L23.45 50.49 L14.47 55.57 L-1 45.9 L-1 36 L-8.73 31.41 L-8.73 16.43 L-0.25 10.87 L0 0" stroke="none" stroke-width="0" fill="#ffffff" fill-rule="evenodd"></path><path d="M0 0 C5.16 -3.13, 10.32 -6.26, 14.72 -8.94 M0 0 C3.87 -2.35, 7.74 -4.7, 14.72 -8.94 M14.72 -8.94 C16.75 -7.71, 18.78 -6.47, 23.45 -3.62 M14.72 -8.94 C18.18 -6.83, 21.65 -4.72, 23.45 -3.62 M23.45 -3.62 C25.73 -4.85, 28.01 -6.08, 32.44 -8.46 M23.45 -3.62 C25.75 -4.86, 28.05 -6.1, 32.44 -8.46 M32.44 -8.46 C35.84 -6.2, 39.24 -3.95, 47.41 1.45 M32.44 -8.46 C37.15 -5.34, 41.86 -2.22, 47.41 1.45 M47.41 1.45 C47.41 4.34, 47.41 7.24, 47.41 12.08 M47.41 1.45 C47.41 4.99, 47.41 8.54, 47.41 12.08 M47.41 12.08 C50.01 13.58, 52.62 15.08, 55.39 16.67 M47.41 12.08 C49.38 13.21, 51.35 14.35, 55.39 16.67 M55.39 16.67 C55.46 20.57, 55.52 24.46, 55.64 31.65 M55.39 16.67 C55.45 20.44, 55.52 24.22, 55.64 31.65 M55.64 31.65 C52.74 33.05, 49.85 34.45, 48.16 35.27 M55.64 31.65 C53.43 32.72, 51.21 33.79, 48.16 35.27 M48.16 35.27 C48.16 39.38, 48.16 43.49, 48.16 46.15 M48.16 35.27 C48.16 39.21, 48.16 43.15, 48.16 46.15 M48.16 46.15 C42.12 49.65, 36.09 53.15, 31.94 55.57 M48.16 46.15 C42.32 49.54, 36.48 52.93, 31.94 55.57 M31.94 55.57 C29.47 54.09, 27 52.61, 23.45 50.49 M31.94 55.57 C30.16 54.51, 28.39 53.45, 23.45 50.49 M23.45 50.49 C20.3 52.28, 17.15 54.06, 14.47 55.57 M23.45 50.49 C20.49 52.17, 17.52 53.85, 14.47 55.57 M14.47 55.57 C8.69 51.96, 2.91 48.34, -1 45.9 M14.47 55.57 C9.36 52.37, 4.25 49.18, -1 45.9 M-1 45.9 C-1 42.93, -1 39.95, -1 36 M-1 45.9 C-1 43.01, -1 40.13, -1 36 M-1 36 C-3.35 34.6, -5.7 33.21, -8.73 31.41 M-1 36 C-2.99 34.81, -4.99 33.63, -8.73 31.41 M-8.73 31.41 C-8.73 26.89, -8.73 22.37, -8.73 16.43 M-8.73 31.41 C-8.73 26.57, -8.73 21.73, -8.73 16.43 M-8.73 16.43 C-6.46 14.94, -4.2 13.46, -0.25 10.87 M-8.73 16.43 C-6.04 14.66, -3.34 12.9, -0.25 10.87 M-0.25 10.87 C-0.16 7.13, -0.08 3.4, 0 0 M-0.25 10.87 C-0.18 7.64, -0.1 4.41, 0 0 M0 0 C0 0, 0 0, 0 0 M0 0 C0 0, 0 0, 0 0" stroke="#279185" stroke-width="2" fill="none"></path></g></g><mask></mask><g stroke-opacity="0.6" fill-opacity="0.6" stroke-linecap="round" transform="translate(493.9829847994788 140.88792916884802) rotate(0 2.489604989605027 2.489604989605027)"><path d="M4.98 2.49 C4.98 2.63, 4.97 2.78, 4.94 2.92 C4.92 3.06, 4.88 3.21, 4.83 3.34 C4.78 3.48, 4.72 3.61, 4.65 3.73 C4.57 3.86, 4.49 3.98, 4.4 4.09 C4.3 4.2, 4.2 4.3, 4.09 4.4 C3.98 4.49, 3.86 4.57, 3.73 4.65 C3.61 4.72, 3.48 4.78, 3.34 4.83 C3.21 4.88, 3.06 4.92, 2.92 4.94 C2.78 4.97, 2.63 4.98, 2.49 4.98 C2.35 4.98, 2.2 4.97, 2.06 4.94 C1.92 4.92, 1.77 4.88, 1.64 4.83 C1.5 4.78, 1.37 4.72, 1.24 4.65 C1.12 4.57, 1 4.49, 0.89 4.4 C0.78 4.3, 0.68 4.2, 0.58 4.09 C0.49 3.98, 0.41 3.86, 0.33 3.73 C0.26 3.61, 0.2 3.48, 0.15 3.34 C0.1 3.21, 0.06 3.06, 0.04 2.92 C0.01 2.78, 0 2.63, 0 2.49 C0 2.35, 0.01 2.2, 0.04 2.06 C0.06 1.92, 0.1 1.77, 0.15 1.64 C0.2 1.5, 0.26 1.37, 0.33 1.24 C0.41 1.12, 0.49 1, 0.58 0.89 C0.68 0.78, 0.78 0.68, 0.89 0.58 C1 0.49, 1.12 0.41, 1.24 0.33 C1.37 0.26, 1.5 0.2, 1.64 0.15 C1.77 0.1, 1.92 0.06, 2.06 0.04 C2.2 0.01, 2.35 0, 2.49 0 C2.63 0, 2.78 0.01, 2.92 0.04 C3.06 0.06, 3.21 0.1, 3.34 0.15 C3.48 0.2, 3.61 0.26, 3.73 0.33 C3.86 0.41, 3.98 0.49, 4.09 0.58 C4.2 0.68, 4.3 0.78, 4.4 0.89 C4.49 1, 4.57 1.12, 4.65 1.24 C4.72 1.37, 4.78 1.5, 4.83 1.64 C4.88 1.77, 4.92 1.92, 4.94 2.06 C4.97 2.2, 4.97 2.42, 4.98 2.49 C4.99 2.56, 4.99 2.42, 4.98 2.49" stroke="none" stroke-width="0" fill="#ffffff"></path><path d="M4.98 2.49 C4.98 2.63, 4.97 2.78, 4.94 2.92 C4.92 3.06, 4.88 3.21, 4.83 3.34 C4.78 3.48, 4.72 3.61, 4.65 3.73 C4.57 3.86, 4.49 3.98, 4.4 4.09 C4.3 4.2, 4.2 4.3, 4.09 4.4 C3.98 4.49, 3.86 4.57, 3.73 4.65 C3.61 4.72, 3.48 4.78, 3.34 4.83 C3.21 4.88, 3.06 4.92, 2.92 4.94 C2.78 4.97, 2.63 4.98, 2.49 4.98 C2.35 4.98, 2.2 4.97, 2.06 4.94 C1.92 4.92, 1.77 4.88, 1.64 4.83 C1.5 4.78, 1.37 4.72, 1.24 4.65 C1.12 4.57, 1 4.49, 0.89 4.4 C0.78 4.3, 0.68 4.2, 0.58 4.09 C0.49 3.98, 0.41 3.86, 0.33 3.73 C0.26 3.61, 0.2 3.48, 0.15 3.34 C0.1 3.21, 0.06 3.06, 0.04 2.92 C0.01 2.78, 0 2.63, 0 2.49 C0 2.35, 0.01 2.2, 0.04 2.06 C0.06 1.92, 0.1 1.77, 0.15 1.64 C0.2 1.5, 0.26 1.37, 0.33 1.24 C0.41 1.12, 0.49 1, 0.58 0.89 C0.68 0.78, 0.78 0.68, 0.89 0.58 C1 0.49, 1.12 0.41, 1.24 0.33 C1.37 0.26, 1.5 0.2, 1.64 0.15 C1.77 0.1, 1.92 0.06, 2.06 0.04 C2.2 0.01, 2.35 0, 2.49 0 C2.63 0, 2.78 0.01, 2.92 0.04 C3.06 0.06, 3.21 0.1, 3.34 0.15 C3.48 0.2, 3.61 0.26, 3.73 0.33 C3.86 0.41, 3.98 0.49, 4.09 0.58 C4.2 0.68, 4.3 0.78, 4.4 0.89 C4.49 1, 4.57 1.12, 4.65 1.24 C4.72 1.37, 4.78 1.5, 4.83 1.64 C4.88 1.77, 4.92 1.92, 4.94 2.06 C4.97 2.2, 4.97 2.42, 4.98 2.49 C4.99 2.56, 4.99 2.42, 4.98 2.49" stroke="#279185" stroke-width="2" fill="none"></path></g><g stroke-opacity="0.6" fill-opacity="0.6" stroke-linecap="round" transform="translate(487.12232743881987 156.62463840555927) rotate(0 2.489604989605027 2.489604989605027)"><path d="M4.98 2.49 C4.98 2.63, 4.97 2.78, 4.94 2.92 C4.92 3.06, 4.88 3.21, 4.83 3.34 C4.78 3.48, 4.72 3.61, 4.65 3.73 C4.57 3.86, 4.49 3.98, 4.4 4.09 C4.3 4.2, 4.2 4.3, 4.09 4.4 C3.98 4.49, 3.86 4.57, 3.73 4.65 C3.61 4.72, 3.48 4.78, 3.34 4.83 C3.21 4.88, 3.06 4.92, 2.92 4.94 C2.78 4.97, 2.63 4.98, 2.49 4.98 C2.35 4.98, 2.2 4.97, 2.06 4.94 C1.92 4.92, 1.77 4.88, 1.64 4.83 C1.5 4.78, 1.37 4.72, 1.24 4.65 C1.12 4.57, 1 4.49, 0.89 4.4 C0.78 4.3, 0.68 4.2, 0.58 4.09 C0.49 3.98, 0.41 3.86, 0.33 3.73 C0.26 3.61, 0.2 3.48, 0.15 3.34 C0.1 3.21, 0.06 3.06, 0.04 2.92 C0.01 2.78, 0 2.63, 0 2.49 C0 2.35, 0.01 2.2, 0.04 2.06 C0.06 1.92, 0.1 1.77, 0.15 1.64 C0.2 1.5, 0.26 1.37, 0.33 1.24 C0.41 1.12, 0.49 1, 0.58 0.89 C0.68 0.78, 0.78 0.68, 0.89 0.58 C1 0.49, 1.12 0.41, 1.24 0.33 C1.37 0.26, 1.5 0.2, 1.64 0.15 C1.77 0.1, 1.92 0.06, 2.06 0.04 C2.2 0.01, 2.35 0, 2.49 0 C2.63 0, 2.78 0.01, 2.92 0.04 C3.06 0.06, 3.21 0.1, 3.34 0.15 C3.48 0.2, 3.61 0.26, 3.73 0.33 C3.86 0.41, 3.98 0.49, 4.09 0.58 C4.2 0.68, 4.3 0.78, 4.4 0.89 C4.49 1, 4.57 1.12, 4.65 1.24 C4.72 1.37, 4.78 1.5, 4.83 1.64 C4.88 1.77, 4.92 1.92, 4.94 2.06 C4.97 2.2, 4.97 2.42, 4.98 2.49 C4.99 2.56, 4.99 2.42, 4.98 2.49" stroke="none" stroke-width="0" fill="#ffffff"></path><path d="M4.98 2.49 C4.98 2.63, 4.97 2.78, 4.94 2.92 C4.92 3.06, 4.88 3.21, 4.83 3.34 C4.78 3.48, 4.72 3.61, 4.65 3.73 C4.57 3.86, 4.49 3.98, 4.4 4.09 C4.3 4.2, 4.2 4.3, 4.09 4.4 C3.98 4.49, 3.86 4.57, 3.73 4.65 C3.61 4.72, 3.48 4.78, 3.34 4.83 C3.21 4.88, 3.06 4.92, 2.92 4.94 C2.78 4.97, 2.63 4.98, 2.49 4.98 C2.35 4.98, 2.2 4.97, 2.06 4.94 C1.92 4.92, 1.77 4.88, 1.64 4.83 C1.5 4.78, 1.37 4.72, 1.24 4.65 C1.12 4.57, 1 4.49, 0.89 4.4 C0.78 4.3, 0.68 4.2, 0.58 4.09 C0.49 3.98, 0.41 3.86, 0.33 3.73 C0.26 3.61, 0.2 3.48, 0.15 3.34 C0.1 3.21, 0.06 3.06, 0.04 2.92 C0.01 2.78, 0 2.63, 0 2.49 C0 2.35, 0.01 2.2, 0.04 2.06 C0.06 1.92, 0.1 1.77, 0.15 1.64 C0.2 1.5, 0.26 1.37, 0.33 1.24 C0.41 1.12, 0.49 1, 0.58 0.89 C0.68 0.78, 0.78 0.68, 0.89 0.58 C1 0.49, 1.12 0.41, 1.24 0.33 C1.37 0.26, 1.5 0.2, 1.64 0.15 C1.77 0.1, 1.92 0.06, 2.06 0.04 C2.2 0.01, 2.35 0, 2.49 0 C2.63 0, 2.78 0.01, 2.92 0.04 C3.06 0.06, 3.21 0.1, 3.34 0.15 C3.48 0.2, 3.61 0.26, 3.73 0.33 C3.86 0.41, 3.98 0.49, 4.09 0.58 C4.2 0.68, 4.3 0.78, 4.4 0.89 C4.49 1, 4.57 1.12, 4.65 1.24 C4.72 1.37, 4.78 1.5, 4.83 1.64 C4.88 1.77, 4.92 1.92, 4.94 2.06 C4.97 2.2, 4.97 2.42, 4.98 2.49 C4.99 2.56, 4.99 2.42, 4.98 2.49" stroke="#279185" stroke-width="2" fill="none"></path></g><g stroke-opacity="0.6" fill-opacity="0.6" stroke-linecap="round" transform="translate(497.4347222512106 180.38674116766003) rotate(0 2.489604989605027 2.489604989605027)"><path d="M4.98 2.49 C4.98 2.63, 4.97 2.78, 4.94 2.92 C4.92 3.06, 4.88 3.21, 4.83 3.34 C4.78 3.48, 4.72 3.61, 4.65 3.73 C4.57 3.86, 4.49 3.98, 4.4 4.09 C4.3 4.2, 4.2 4.3, 4.09 4.4 C3.98 4.49, 3.86 4.57, 3.73 4.65 C3.61 4.72, 3.48 4.78, 3.34 4.83 C3.21 4.88, 3.06 4.92, 2.92 4.94 C2.78 4.97, 2.63 4.98, 2.49 4.98 C2.35 4.98, 2.2 4.97, 2.06 4.94 C1.92 4.92, 1.77 4.88, 1.64 4.83 C1.5 4.78, 1.37 4.72, 1.24 4.65 C1.12 4.57, 1 4.49, 0.89 4.4 C0.78 4.3, 0.68 4.2, 0.58 4.09 C0.49 3.98, 0.41 3.86, 0.33 3.73 C0.26 3.61, 0.2 3.48, 0.15 3.34 C0.1 3.21, 0.06 3.06, 0.04 2.92 C0.01 2.78, 0 2.63, 0 2.49 C0 2.35, 0.01 2.2, 0.04 2.06 C0.06 1.92, 0.1 1.77, 0.15 1.64 C0.2 1.5, 0.26 1.37, 0.33 1.24 C0.41 1.12, 0.49 1, 0.58 0.89 C0.68 0.78, 0.78 0.68, 0.89 0.58 C1 0.49, 1.12 0.41, 1.24 0.33 C1.37 0.26, 1.5 0.2, 1.64 0.15 C1.77 0.1, 1.92 0.06, 2.06 0.04 C2.2 0.01, 2.35 0, 2.49 0 C2.63 0, 2.78 0.01, 2.92 0.04 C3.06 0.06, 3.21 0.1, 3.34 0.15 C3.48 0.2, 3.61 0.26, 3.73 0.33 C3.86 0.41, 3.98 0.49, 4.09 0.58 C4.2 0.68, 4.3 0.78, 4.4 0.89 C4.49 1, 4.57 1.12, 4.65 1.24 C4.72 1.37, 4.78 1.5, 4.83 1.64 C4.88 1.77, 4.92 1.92, 4.94 2.06 C4.97 2.2, 4.97 2.42, 4.98 2.49 C4.99 2.56, 4.99 2.42, 4.98 2.49" stroke="none" stroke-width="0" fill="#ffffff"></path><path d="M4.98 2.49 C4.98 2.63, 4.97 2.78, 4.94 2.92 C4.92 3.06, 4.88 3.21, 4.83 3.34 C4.78 3.48, 4.72 3.61, 4.65 3.73 C4.57 3.86, 4.49 3.98, 4.4 4.09 C4.3 4.2, 4.2 4.3, 4.09 4.4 C3.98 4.49, 3.86 4.57, 3.73 4.65 C3.61 4.72, 3.48 4.78, 3.34 4.83 C3.21 4.88, 3.06 4.92, 2.92 4.94 C2.78 4.97, 2.63 4.98, 2.49 4.98 C2.35 4.98, 2.2 4.97, 2.06 4.94 C1.92 4.92, 1.77 4.88, 1.64 4.83 C1.5 4.78, 1.37 4.72, 1.24 4.65 C1.12 4.57, 1 4.49, 0.89 4.4 C0.78 4.3, 0.68 4.2, 0.58 4.09 C0.49 3.98, 0.41 3.86, 0.33 3.73 C0.26 3.61, 0.2 3.48, 0.15 3.34 C0.1 3.21, 0.06 3.06, 0.04 2.92 C0.01 2.78, 0 2.63, 0 2.49 C0 2.35, 0.01 2.2, 0.04 2.06 C0.06 1.92, 0.1 1.77, 0.15 1.64 C0.2 1.5, 0.26 1.37, 0.33 1.24 C0.41 1.12, 0.49 1, 0.58 0.89 C0.68 0.78, 0.78 0.68, 0.89 0.58 C1 0.49, 1.12 0.41, 1.24 0.33 C1.37 0.26, 1.5 0.2, 1.64 0.15 C1.77 0.1, 1.92 0.06, 2.06 0.04 C2.2 0.01, 2.35 0, 2.49 0 C2.63 0, 2.78 0.01, 2.92 0.04 C3.06 0.06, 3.21 0.1, 3.34 0.15 C3.48 0.2, 3.61 0.26, 3.73 0.33 C3.86 0.41, 3.98 0.49, 4.09 0.58 C4.2 0.68, 4.3 0.78, 4.4 0.89 C4.49 1, 4.57 1.12, 4.65 1.24 C4.72 1.37, 4.78 1.5, 4.83 1.64 C4.88 1.77, 4.92 1.92, 4.94 2.06 C4.97 2.2, 4.97 2.42, 4.98 2.49 C4.99 2.56, 4.99 2.42, 4.98 2.49" stroke="#279185" stroke-width="2" fill="none"></path></g><g stroke-opacity="0.6" fill-opacity="0.6" stroke-linecap="round" transform="translate(487.4711443876349 170.23518191610117) rotate(0 2.489604989605027 2.489604989605027)"><path d="M4.98 2.49 C4.98 2.63, 4.97 2.78, 4.94 2.92 C4.92 3.06, 4.88 3.21, 4.83 3.34 C4.78 3.48, 4.72 3.61, 4.65 3.73 C4.57 3.86, 4.49 3.98, 4.4 4.09 C4.3 4.2, 4.2 4.3, 4.09 4.4 C3.98 4.49, 3.86 4.57, 3.73 4.65 C3.61 4.72, 3.48 4.78, 3.34 4.83 C3.21 4.88, 3.06 4.92, 2.92 4.94 C2.78 4.97, 2.63 4.98, 2.49 4.98 C2.35 4.98, 2.2 4.97, 2.06 4.94 C1.92 4.92, 1.77 4.88, 1.64 4.83 C1.5 4.78, 1.37 4.72, 1.24 4.65 C1.12 4.57, 1 4.49, 0.89 4.4 C0.78 4.3, 0.68 4.2, 0.58 4.09 C0.49 3.98, 0.41 3.86, 0.33 3.73 C0.26 3.61, 0.2 3.48, 0.15 3.34 C0.1 3.21, 0.06 3.06, 0.04 2.92 C0.01 2.78, 0 2.63, 0 2.49 C0 2.35, 0.01 2.2, 0.04 2.06 C0.06 1.92, 0.1 1.77, 0.15 1.64 C0.2 1.5, 0.26 1.37, 0.33 1.24 C0.41 1.12, 0.49 1, 0.58 0.89 C0.68 0.78, 0.78 0.68, 0.89 0.58 C1 0.49, 1.12 0.41, 1.24 0.33 C1.37 0.26, 1.5 0.2, 1.64 0.15 C1.77 0.1, 1.92 0.06, 2.06 0.04 C2.2 0.01, 2.35 0, 2.49 0 C2.63 0, 2.78 0.01, 2.92 0.04 C3.06 0.06, 3.21 0.1, 3.34 0.15 C3.48 0.2, 3.61 0.26, 3.73 0.33 C3.86 0.41, 3.98 0.49, 4.09 0.58 C4.2 0.68, 4.3 0.78, 4.4 0.89 C4.49 1, 4.57 1.12, 4.65 1.24 C4.72 1.37, 4.78 1.5, 4.83 1.64 C4.88 1.77, 4.92 1.92, 4.94 2.06 C4.97 2.2, 4.97 2.42, 4.98 2.49 C4.99 2.56, 4.99 2.42, 4.98 2.49" stroke="none" stroke-width="0" fill="#ffffff"></path><path d="M4.98 2.49 C4.98 2.63, 4.97 2.78, 4.94 2.92 C4.92 3.06, 4.88 3.21, 4.83 3.34 C4.78 3.48, 4.72 3.61, 4.65 3.73 C4.57 3.86, 4.49 3.98, 4.4 4.09 C4.3 4.2, 4.2 4.3, 4.09 4.4 C3.98 4.49, 3.86 4.57, 3.73 4.65 C3.61 4.72, 3.48 4.78, 3.34 4.83 C3.21 4.88, 3.06 4.92, 2.92 4.94 C2.78 4.97, 2.63 4.98, 2.49 4.98 C2.35 4.98, 2.2 4.97, 2.06 4.94 C1.92 4.92, 1.77 4.88, 1.64 4.83 C1.5 4.78, 1.37 4.72, 1.24 4.65 C1.12 4.57, 1 4.49, 0.89 4.4 C0.78 4.3, 0.68 4.2, 0.58 4.09 C0.49 3.98, 0.41 3.86, 0.33 3.73 C0.26 3.61, 0.2 3.48, 0.15 3.34 C0.1 3.21, 0.06 3.06, 0.04 2.92 C0.01 2.78, 0 2.63, 0 2.49 C0 2.35, 0.01 2.2, 0.04 2.06 C0.06 1.92, 0.1 1.77, 0.15 1.64 C0.2 1.5, 0.26 1.37, 0.33 1.24 C0.41 1.12, 0.49 1, 0.58 0.89 C0.68 0.78, 0.78 0.68, 0.89 0.58 C1 0.49, 1.12 0.41, 1.24 0.33 C1.37 0.26, 1.5 0.2, 1.64 0.15 C1.77 0.1, 1.92 0.06, 2.06 0.04 C2.2 0.01, 2.35 0, 2.49 0 C2.63 0, 2.78 0.01, 2.92 0.04 C3.06 0.06, 3.21 0.1, 3.34 0.15 C3.48 0.2, 3.61 0.26, 3.73 0.33 C3.86 0.41, 3.98 0.49, 4.09 0.58 C4.2 0.68, 4.3 0.78, 4.4 0.89 C4.49 1, 4.57 1.12, 4.65 1.24 C4.72 1.37, 4.78 1.5, 4.83 1.64 C4.88 1.77, 4.92 1.92, 4.94 2.06 C4.97 2.2, 4.97 2.42, 4.98 2.49 C4.99 2.56, 4.99 2.42, 4.98 2.49" stroke="#279185" stroke-width="2" fill="none"></path></g><g stroke-opacity="0.6" fill-opacity="0.6" stroke-linecap="round" transform="translate(471.4711443876349 182.03518191610044) rotate(0 2.489604989605027 2.489604989605027)"><path d="M4.98 2.49 C4.98 2.63, 4.97 2.78, 4.94 2.92 C4.92 3.06, 4.88 3.21, 4.83 3.34 C4.78 3.48, 4.72 3.61, 4.65 3.73 C4.57 3.86, 4.49 3.98, 4.4 4.09 C4.3 4.2, 4.2 4.3, 4.09 4.4 C3.98 4.49, 3.86 4.57, 3.73 4.65 C3.61 4.72, 3.48 4.78, 3.34 4.83 C3.21 4.88, 3.06 4.92, 2.92 4.94 C2.78 4.97, 2.63 4.98, 2.49 4.98 C2.35 4.98, 2.2 4.97, 2.06 4.94 C1.92 4.92, 1.77 4.88, 1.64 4.83 C1.5 4.78, 1.37 4.72, 1.24 4.65 C1.12 4.57, 1 4.49, 0.89 4.4 C0.78 4.3, 0.68 4.2, 0.58 4.09 C0.49 3.98, 0.41 3.86, 0.33 3.73 C0.26 3.61, 0.2 3.48, 0.15 3.34 C0.1 3.21, 0.06 3.06, 0.04 2.92 C0.01 2.78, 0 2.63, 0 2.49 C0 2.35, 0.01 2.2, 0.04 2.06 C0.06 1.92, 0.1 1.77, 0.15 1.64 C0.2 1.5, 0.26 1.37, 0.33 1.24 C0.41 1.12, 0.49 1, 0.58 0.89 C0.68 0.78, 0.78 0.68, 0.89 0.58 C1 0.49, 1.12 0.41, 1.24 0.33 C1.37 0.26, 1.5 0.2, 1.64 0.15 C1.77 0.1, 1.92 0.06, 2.06 0.04 C2.2 0.01, 2.35 0, 2.49 0 C2.63 0, 2.78 0.01, 2.92 0.04 C3.06 0.06, 3.21 0.1, 3.34 0.15 C3.48 0.2, 3.61 0.26, 3.73 0.33 C3.86 0.41, 3.98 0.49, 4.09 0.58 C4.2 0.68, 4.3 0.78, 4.4 0.89 C4.49 1, 4.57 1.12, 4.65 1.24 C4.72 1.37, 4.78 1.5, 4.83 1.64 C4.88 1.77, 4.92 1.92, 4.94 2.06 C4.97 2.2, 4.97 2.42, 4.98 2.49 C4.99 2.56, 4.99 2.42, 4.98 2.49" stroke="none" stroke-width="0" fill="#ffffff"></path><path d="M4.98 2.49 C4.98 2.63, 4.97 2.78, 4.94 2.92 C4.92 3.06, 4.88 3.21, 4.83 3.34 C4.78 3.48, 4.72 3.61, 4.65 3.73 C4.57 3.86, 4.49 3.98, 4.4 4.09 C4.3 4.2, 4.2 4.3, 4.09 4.4 C3.98 4.49, 3.86 4.57, 3.73 4.65 C3.61 4.72, 3.48 4.78, 3.34 4.83 C3.21 4.88, 3.06 4.92, 2.92 4.94 C2.78 4.97, 2.63 4.98, 2.49 4.98 C2.35 4.98, 2.2 4.97, 2.06 4.94 C1.92 4.92, 1.77 4.88, 1.64 4.83 C1.5 4.78, 1.37 4.72, 1.24 4.65 C1.12 4.57, 1 4.49, 0.89 4.4 C0.78 4.3, 0.68 4.2, 0.58 4.09 C0.49 3.98, 0.41 3.86, 0.33 3.73 C0.26 3.61, 0.2 3.48, 0.15 3.34 C0.1 3.21, 0.06 3.06, 0.04 2.92 C0.01 2.78, 0 2.63, 0 2.49 C0 2.35, 0.01 2.2, 0.04 2.06 C0.06 1.92, 0.1 1.77, 0.15 1.64 C0.2 1.5, 0.26 1.37, 0.33 1.24 C0.41 1.12, 0.49 1, 0.58 0.89 C0.68 0.78, 0.78 0.68, 0.89 0.58 C1 0.49, 1.12 0.41, 1.24 0.33 C1.37 0.26, 1.5 0.2, 1.64 0.15 C1.77 0.1, 1.92 0.06, 2.06 0.04 C2.2 0.01, 2.35 0, 2.49 0 C2.63 0, 2.78 0.01, 2.92 0.04 C3.06 0.06, 3.21 0.1, 3.34 0.15 C3.48 0.2, 3.61 0.26, 3.73 0.33 C3.86 0.41, 3.98 0.49, 4.09 0.58 C4.2 0.68, 4.3 0.78, 4.4 0.89 C4.49 1, 4.57 1.12, 4.65 1.24 C4.72 1.37, 4.78 1.5, 4.83 1.64 C4.88 1.77, 4.92 1.92, 4.94 2.06 C4.97 2.2, 4.97 2.42, 4.98 2.49 C4.99 2.56, 4.99 2.42, 4.98 2.49" stroke="#279185" stroke-width="2" fill="none"></path></g><g stroke-opacity="0.6" fill-opacity="0.6" stroke-linecap="round" transform="translate(469.2711443876351 142.03518191610044) rotate(0 2.489604989605027 2.489604989605027)"><path d="M4.98 2.49 C4.98 2.63, 4.97 2.78, 4.94 2.92 C4.92 3.06, 4.88 3.21, 4.83 3.34 C4.78 3.48, 4.72 3.61, 4.65 3.73 C4.57 3.86, 4.49 3.98, 4.4 4.09 C4.3 4.2, 4.2 4.3, 4.09 4.4 C3.98 4.49, 3.86 4.57, 3.73 4.65 C3.61 4.72, 3.48 4.78, 3.34 4.83 C3.21 4.88, 3.06 4.92, 2.92 4.94 C2.78 4.97, 2.63 4.98, 2.49 4.98 C2.35 4.98, 2.2 4.97, 2.06 4.94 C1.92 4.92, 1.77 4.88, 1.64 4.83 C1.5 4.78, 1.37 4.72, 1.24 4.65 C1.12 4.57, 1 4.49, 0.89 4.4 C0.78 4.3, 0.68 4.2, 0.58 4.09 C0.49 3.98, 0.41 3.86, 0.33 3.73 C0.26 3.61, 0.2 3.48, 0.15 3.34 C0.1 3.21, 0.06 3.06, 0.04 2.92 C0.01 2.78, 0 2.63, 0 2.49 C0 2.35, 0.01 2.2, 0.04 2.06 C0.06 1.92, 0.1 1.77, 0.15 1.64 C0.2 1.5, 0.26 1.37, 0.33 1.24 C0.41 1.12, 0.49 1, 0.58 0.89 C0.68 0.78, 0.78 0.68, 0.89 0.58 C1 0.49, 1.12 0.41, 1.24 0.33 C1.37 0.26, 1.5 0.2, 1.64 0.15 C1.77 0.1, 1.92 0.06, 2.06 0.04 C2.2 0.01, 2.35 0, 2.49 0 C2.63 0, 2.78 0.01, 2.92 0.04 C3.06 0.06, 3.21 0.1, 3.34 0.15 C3.48 0.2, 3.61 0.26, 3.73 0.33 C3.86 0.41, 3.98 0.49, 4.09 0.58 C4.2 0.68, 4.3 0.78, 4.4 0.89 C4.49 1, 4.57 1.12, 4.65 1.24 C4.72 1.37, 4.78 1.5, 4.83 1.64 C4.88 1.77, 4.92 1.92, 4.94 2.06 C4.97 2.2, 4.97 2.42, 4.98 2.49 C4.99 2.56, 4.99 2.42, 4.98 2.49" stroke="none" stroke-width="0" fill="#ffffff"></path><path d="M4.98 2.49 C4.98 2.63, 4.97 2.78, 4.94 2.92 C4.92 3.06, 4.88 3.21, 4.83 3.34 C4.78 3.48, 4.72 3.61, 4.65 3.73 C4.57 3.86, 4.49 3.98, 4.4 4.09 C4.3 4.2, 4.2 4.3, 4.09 4.4 C3.98 4.49, 3.86 4.57, 3.73 4.65 C3.61 4.72, 3.48 4.78, 3.34 4.83 C3.21 4.88, 3.06 4.92, 2.92 4.94 C2.78 4.97, 2.63 4.98, 2.49 4.98 C2.35 4.98, 2.2 4.97, 2.06 4.94 C1.92 4.92, 1.77 4.88, 1.64 4.83 C1.5 4.78, 1.37 4.72, 1.24 4.65 C1.12 4.57, 1 4.49, 0.89 4.4 C0.78 4.3, 0.68 4.2, 0.58 4.09 C0.49 3.98, 0.41 3.86, 0.33 3.73 C0.26 3.61, 0.2 3.48, 0.15 3.34 C0.1 3.21, 0.06 3.06, 0.04 2.92 C0.01 2.78, 0 2.63, 0 2.49 C0 2.35, 0.01 2.2, 0.04 2.06 C0.06 1.92, 0.1 1.77, 0.15 1.64 C0.2 1.5, 0.26 1.37, 0.33 1.24 C0.41 1.12, 0.49 1, 0.58 0.89 C0.68 0.78, 0.78 0.68, 0.89 0.58 C1 0.49, 1.12 0.41, 1.24 0.33 C1.37 0.26, 1.5 0.2, 1.64 0.15 C1.77 0.1, 1.92 0.06, 2.06 0.04 C2.2 0.01, 2.35 0, 2.49 0 C2.63 0, 2.78 0.01, 2.92 0.04 C3.06 0.06, 3.21 0.1, 3.34 0.15 C3.48 0.2, 3.61 0.26, 3.73 0.33 C3.86 0.41, 3.98 0.49, 4.09 0.58 C4.2 0.68, 4.3 0.78, 4.4 0.89 C4.49 1, 4.57 1.12, 4.65 1.24 C4.72 1.37, 4.78 1.5, 4.83 1.64 C4.88 1.77, 4.92 1.92, 4.94 2.06 C4.97 2.2, 4.97 2.42, 4.98 2.49 C4.99 2.56, 4.99 2.42, 4.98 2.49" stroke="#279185" stroke-width="2" fill="none"></path></g><g stroke-opacity="0.6" fill-opacity="0.6" stroke-linecap="round" transform="translate(469.871144387635 169.43518191610008) rotate(0 2.489604989605027 2.489604989605027)"><path d="M4.98 2.49 C4.98 2.63, 4.97 2.78, 4.94 2.92 C4.92 3.06, 4.88 3.21, 4.83 3.34 C4.78 3.48, 4.72 3.61, 4.65 3.73 C4.57 3.86, 4.49 3.98, 4.4 4.09 C4.3 4.2, 4.2 4.3, 4.09 4.4 C3.98 4.49, 3.86 4.57, 3.73 4.65 C3.61 4.72, 3.48 4.78, 3.34 4.83 C3.21 4.88, 3.06 4.92, 2.92 4.94 C2.78 4.97, 2.63 4.98, 2.49 4.98 C2.35 4.98, 2.2 4.97, 2.06 4.94 C1.92 4.92, 1.77 4.88, 1.64 4.83 C1.5 4.78, 1.37 4.72, 1.24 4.65 C1.12 4.57, 1 4.49, 0.89 4.4 C0.78 4.3, 0.68 4.2, 0.58 4.09 C0.49 3.98, 0.41 3.86, 0.33 3.73 C0.26 3.61, 0.2 3.48, 0.15 3.34 C0.1 3.21, 0.06 3.06, 0.04 2.92 C0.01 2.78, 0 2.63, 0 2.49 C0 2.35, 0.01 2.2, 0.04 2.06 C0.06 1.92, 0.1 1.77, 0.15 1.64 C0.2 1.5, 0.26 1.37, 0.33 1.24 C0.41 1.12, 0.49 1, 0.58 0.89 C0.68 0.78, 0.78 0.68, 0.89 0.58 C1 0.49, 1.12 0.41, 1.24 0.33 C1.37 0.26, 1.5 0.2, 1.64 0.15 C1.77 0.1, 1.92 0.06, 2.06 0.04 C2.2 0.01, 2.35 0, 2.49 0 C2.63 0, 2.78 0.01, 2.92 0.04 C3.06 0.06, 3.21 0.1, 3.34 0.15 C3.48 0.2, 3.61 0.26, 3.73 0.33 C3.86 0.41, 3.98 0.49, 4.09 0.58 C4.2 0.68, 4.3 0.78, 4.4 0.89 C4.49 1, 4.57 1.12, 4.65 1.24 C4.72 1.37, 4.78 1.5, 4.83 1.64 C4.88 1.77, 4.92 1.92, 4.94 2.06 C4.97 2.2, 4.97 2.42, 4.98 2.49 C4.99 2.56, 4.99 2.42, 4.98 2.49" stroke="none" stroke-width="0" fill="#ffffff"></path><path d="M4.98 2.49 C4.98 2.63, 4.97 2.78, 4.94 2.92 C4.92 3.06, 4.88 3.21, 4.83 3.34 C4.78 3.48, 4.72 3.61, 4.65 3.73 C4.57 3.86, 4.49 3.98, 4.4 4.09 C4.3 4.2, 4.2 4.3, 4.09 4.4 C3.98 4.49, 3.86 4.57, 3.73 4.65 C3.61 4.72, 3.48 4.78, 3.34 4.83 C3.21 4.88, 3.06 4.92, 2.92 4.94 C2.78 4.97, 2.63 4.98, 2.49 4.98 C2.35 4.98, 2.2 4.97, 2.06 4.94 C1.92 4.92, 1.77 4.88, 1.64 4.83 C1.5 4.78, 1.37 4.72, 1.24 4.65 C1.12 4.57, 1 4.49, 0.89 4.4 C0.78 4.3, 0.68 4.2, 0.58 4.09 C0.49 3.98, 0.41 3.86, 0.33 3.73 C0.26 3.61, 0.2 3.48, 0.15 3.34 C0.1 3.21, 0.06 3.06, 0.04 2.92 C0.01 2.78, 0 2.63, 0 2.49 C0 2.35, 0.01 2.2, 0.04 2.06 C0.06 1.92, 0.1 1.77, 0.15 1.64 C0.2 1.5, 0.26 1.37, 0.33 1.24 C0.41 1.12, 0.49 1, 0.58 0.89 C0.68 0.78, 0.78 0.68, 0.89 0.58 C1 0.49, 1.12 0.41, 1.24 0.33 C1.37 0.26, 1.5 0.2, 1.64 0.15 C1.77 0.1, 1.92 0.06, 2.06 0.04 C2.2 0.01, 2.35 0, 2.49 0 C2.63 0, 2.78 0.01, 2.92 0.04 C3.06 0.06, 3.21 0.1, 3.34 0.15 C3.48 0.2, 3.61 0.26, 3.73 0.33 C3.86 0.41, 3.98 0.49, 4.09 0.58 C4.2 0.68, 4.3 0.78, 4.4 0.89 C4.49 1, 4.57 1.12, 4.65 1.24 C4.72 1.37, 4.78 1.5, 4.83 1.64 C4.88 1.77, 4.92 1.92, 4.94 2.06 C4.97 2.2, 4.97 2.42, 4.98 2.49 C4.99 2.56, 4.99 2.42, 4.98 2.49" stroke="#279185" stroke-width="2" fill="none"></path></g><g stroke-opacity="0.6" fill-opacity="0.6" stroke-linecap="round" transform="translate(460.871144387635 155.43518191610008) rotate(0 2.489604989605027 2.489604989605027)"><path d="M4.98 2.49 C4.98 2.63, 4.97 2.78, 4.94 2.92 C4.92 3.06, 4.88 3.21, 4.83 3.34 C4.78 3.48, 4.72 3.61, 4.65 3.73 C4.57 3.86, 4.49 3.98, 4.4 4.09 C4.3 4.2, 4.2 4.3, 4.09 4.4 C3.98 4.49, 3.86 4.57, 3.73 4.65 C3.61 4.72, 3.48 4.78, 3.34 4.83 C3.21 4.88, 3.06 4.92, 2.92 4.94 C2.78 4.97, 2.63 4.98, 2.49 4.98 C2.35 4.98, 2.2 4.97, 2.06 4.94 C1.92 4.92, 1.77 4.88, 1.64 4.83 C1.5 4.78, 1.37 4.72, 1.24 4.65 C1.12 4.57, 1 4.49, 0.89 4.4 C0.78 4.3, 0.68 4.2, 0.58 4.09 C0.49 3.98, 0.41 3.86, 0.33 3.73 C0.26 3.61, 0.2 3.48, 0.15 3.34 C0.1 3.21, 0.06 3.06, 0.04 2.92 C0.01 2.78, 0 2.63, 0 2.49 C0 2.35, 0.01 2.2, 0.04 2.06 C0.06 1.92, 0.1 1.77, 0.15 1.64 C0.2 1.5, 0.26 1.37, 0.33 1.24 C0.41 1.12, 0.49 1, 0.58 0.89 C0.68 0.78, 0.78 0.68, 0.89 0.58 C1 0.49, 1.12 0.41, 1.24 0.33 C1.37 0.26, 1.5 0.2, 1.64 0.15 C1.77 0.1, 1.92 0.06, 2.06 0.04 C2.2 0.01, 2.35 0, 2.49 0 C2.63 0, 2.78 0.01, 2.92 0.04 C3.06 0.06, 3.21 0.1, 3.34 0.15 C3.48 0.2, 3.61 0.26, 3.73 0.33 C3.86 0.41, 3.98 0.49, 4.09 0.58 C4.2 0.68, 4.3 0.78, 4.4 0.89 C4.49 1, 4.57 1.12, 4.65 1.24 C4.72 1.37, 4.78 1.5, 4.83 1.64 C4.88 1.77, 4.92 1.92, 4.94 2.06 C4.97 2.2, 4.97 2.42, 4.98 2.49 C4.99 2.56, 4.99 2.42, 4.98 2.49" stroke="none" stroke-width="0" fill="#ffffff"></path><path d="M4.98 2.49 C4.98 2.63, 4.97 2.78, 4.94 2.92 C4.92 3.06, 4.88 3.21, 4.83 3.34 C4.78 3.48, 4.72 3.61, 4.65 3.73 C4.57 3.86, 4.49 3.98, 4.4 4.09 C4.3 4.2, 4.2 4.3, 4.09 4.4 C3.98 4.49, 3.86 4.57, 3.73 4.65 C3.61 4.72, 3.48 4.78, 3.34 4.83 C3.21 4.88, 3.06 4.92, 2.92 4.94 C2.78 4.97, 2.63 4.98, 2.49 4.98 C2.35 4.98, 2.2 4.97, 2.06 4.94 C1.92 4.92, 1.77 4.88, 1.64 4.83 C1.5 4.78, 1.37 4.72, 1.24 4.65 C1.12 4.57, 1 4.49, 0.89 4.4 C0.78 4.3, 0.68 4.2, 0.58 4.09 C0.49 3.98, 0.41 3.86, 0.33 3.73 C0.26 3.61, 0.2 3.48, 0.15 3.34 C0.1 3.21, 0.06 3.06, 0.04 2.92 C0.01 2.78, 0 2.63, 0 2.49 C0 2.35, 0.01 2.2, 0.04 2.06 C0.06 1.92, 0.1 1.77, 0.15 1.64 C0.2 1.5, 0.26 1.37, 0.33 1.24 C0.41 1.12, 0.49 1, 0.58 0.89 C0.68 0.78, 0.78 0.68, 0.89 0.58 C1 0.49, 1.12 0.41, 1.24 0.33 C1.37 0.26, 1.5 0.2, 1.64 0.15 C1.77 0.1, 1.92 0.06, 2.06 0.04 C2.2 0.01, 2.35 0, 2.49 0 C2.63 0, 2.78 0.01, 2.92 0.04 C3.06 0.06, 3.21 0.1, 3.34 0.15 C3.48 0.2, 3.61 0.26, 3.73 0.33 C3.86 0.41, 3.98 0.49, 4.09 0.58 C4.2 0.68, 4.3 0.78, 4.4 0.89 C4.49 1, 4.57 1.12, 4.65 1.24 C4.72 1.37, 4.78 1.5, 4.83 1.64 C4.88 1.77, 4.92 1.92, 4.94 2.06 C4.97 2.2, 4.97 2.42, 4.98 2.49 C4.99 2.56, 4.99 2.42, 4.98 2.49" stroke="#279185" stroke-width="2" fill="none"></path></g><g stroke-linecap="round"><g stroke-opacity="0.6" fill-opacity="0.6" transform="translate(489.96074937724006 151.12478690570595) rotate(0 0 2.4000000000000057)"><path d="M0 0 C0 1.56, 0 3.13, 0 4.8 M0 0 C0 1.1, 0 2.21, 0 4.8" stroke="#279185" stroke-width="2" fill="none"></path></g></g><mask></mask><g stroke-linecap="round"><g stroke-opacity="0.6" fill-opacity="0.6" transform="translate(459.1607493772399 144.12478690570595) rotate(0 5.199999999999932 -2.842170943040401e-14)"><path d="M0 0 C3.68 0, 7.36 0, 10.4 0 M0 0 C2.78 0, 5.56 0, 10.4 0" stroke="#279185" stroke-width="2" fill="none"></path></g></g><mask></mask><g stroke-linecap="round"><g stroke-opacity="0.6" fill-opacity="0.6" transform="translate(482.36074937724015 137.7247869057063) rotate(0 0.1999999999999318 26.799999999999955)"><path d="M0 0 C0.13 16.83, 0.25 33.66, 0.4 53.6 M0 0 C0.09 12.2, 0.18 24.39, 0.4 53.6" stroke="#279185" stroke-width="2" fill="none"></path></g></g><mask></mask><g stroke-linecap="round"><g stroke-opacity="0.6" fill-opacity="0.6" transform="translate(482.7607493772398 149.92478690570522) rotate(0 7 0)"><path d="M0 0 C4.07 0, 8.13 0, 14 0 M0 0 C4.99 0, 9.99 0, 14 0" stroke="#279185" stroke-width="2" fill="none"></path></g></g><mask></mask><g stroke-linecap="round"><g stroke-opacity="0.6" fill-opacity="0.6" transform="translate(513.1607493772399 163.12478690570595) rotate(0 -6.999999999999886 4.799999999999983)"><path d="M0 0 C-5.25 0, -10.5 0, -14 0 M0 0 C-4.04 0, -8.08 0, -14 0 M-14 0 C-14 2.96, -14 5.92, -14 9.6 M-14 0 C-14 3.59, -14 7.19, -14 9.6" stroke="#279185" stroke-width="2" fill="none"></path></g></g><mask></mask><g stroke-linecap="round"><g stroke-opacity="0.6" fill-opacity="0.6" transform="translate(493.3607493772397 172.7247869057045) rotate(0 2.800000000000068 2.842170943040401e-14)"><path d="M0 0 C1.42 0, 2.84 0, 5.6 0 M0 0 C1.43 0, 2.87 0, 5.6 0" stroke="#279185" stroke-width="2" fill="none"></path></g></g><mask></mask><g stroke-linecap="round"><g stroke-opacity="0.6" fill-opacity="0.6" transform="translate(496.76074937724024 149.52478690570558) rotate(0 0 -1.4000000000000057)"><path d="M0 0 C0 -1.1, 0 -2.2, 0 -2.8 M0 0 C0 -0.85, 0 -1.71, 0 -2.8" stroke="#279185" stroke-width="2" fill="none"></path></g></g><mask></mask><g stroke-linecap="round"><g stroke-opacity="0.6" fill-opacity="0.6" transform="translate(463.56074937724 144.7247869057063) rotate(0 -1.1368683772161603e-13 5)"><path d="M0 0 C0 2.31, 0 4.62, 0 10 M0 0 C0 3.04, 0 6.09, 0 10" stroke="#279185" stroke-width="2" fill="none"></path></g></g><mask></mask><g stroke-linecap="round"><g stroke-opacity="0.6" fill-opacity="0.6" transform="translate(482.3607493772397 156.7247869057063) rotate(0 -5.2000000000000455 6.200000000000017)"><path d="M0 0 C-3.74 0, -7.47 0, -10.4 0 M0 0 C-3.77 0, -7.54 0, -10.4 0 M-10.4 0 C-10.4 4.31, -10.4 8.62, -10.4 12.4 M-10.4 0 C-10.4 4.4, -10.4 8.79, -10.4 12.4" stroke="#279185" stroke-width="2" fill="none"></path></g></g><mask></mask><g stroke-linecap="round"><g stroke-opacity="0.6" fill-opacity="0.6" transform="translate(451.96074937724006 172.32478690570667) rotate(0 6.2000000000000455 6.400000000000006)"><path d="M0 0 C3.92 0.13, 7.83 0.25, 12.4 0.4 M0 0 C2.91 0.09, 5.83 0.19, 12.4 0.4 M12.4 0.4 C12.4 3.23, 12.4 6.07, 12.4 12.8 M12.4 0.4 C12.4 4.23, 12.4 8.07, 12.4 12.8" stroke="#279185" stroke-width="2" fill="none"></path></g></g><mask></mask><g stroke-linecap="round"><g stroke-opacity="0.6" fill-opacity="0.6" transform="translate(470.16074937724034 185.12478690570595) rotate(0 -2.800000000000068 2.842170943040401e-14)"><path d="M0 0 C-2.07 0, -4.14 0, -5.6 0 M0 0 C-1.91 0, -3.82 0, -5.6 0" stroke="#279185" stroke-width="2" fill="none"></path></g></g><mask></mask><g stroke-linecap="round"><g stroke-opacity="0.6" fill-opacity="0.6" transform="translate(491.56074937724 194.7247869057063) rotate(0 2.800000000000068 -6)"><path d="M0 0 C0 -3.7, 0 -7.4, 0 -12 M0 0 C0 -4.49, 0 -8.98, 0 -12 M0 -12 C1.73 -12, 3.46 -12, 5.6 -12 M0 -12 C1.38 -12, 2.75 -12, 5.6 -12" stroke="#279185" stroke-width="2" fill="none"></path></g></g><mask></mask><g stroke-opacity="0.6" fill-opacity="0.6" transform="translate(455.0421967586876 200.80252128070595) rotate(0 26.983333587646484 12)"><text x="0" y="0" font-family="Virgil, Segoe UI Emoji" font-size="20px" fill="#000000" text-anchor="start" style="white-space: pre;" direction="ltr" dominant-baseline="text-before-edge">Model</text></g><g stroke-linecap="round"><g transform="translate(312.92545677877024 47.269921902867395) rotate(0 67.41224603458238 59.62758030138855)"><path d="M0.2 0.82 C22.55 20.51, 112.37 98.9, 134.63 118.44" stroke="#1e1e1e" stroke-width="2.5" fill="none" stroke-dasharray="8 10"></path></g><g transform="translate(312.92545677877024 47.269921902867395) rotate(0 67.41224603458238 59.62758030138855)"><path d="M106.66 107.59 C117.61 112.29, 124.68 114.48, 134.63 118.44" stroke="#1e1e1e" stroke-width="2.5" fill="none"></path></g><g transform="translate(312.92545677877024 47.269921902867395) rotate(0 67.41224603458238 59.62758030138855)"><path d="M120.17 92.15 C126.54 102.15, 128.99 109.63, 134.63 118.44" stroke="#1e1e1e" stroke-width="2.5" fill="none"></path></g></g><mask></mask></svg>